<?xml version="1.0" encoding="UTF-8" standalone="no"?>
<!DOCTYPE svg PUBLIC "-//W3C//DTD SVG 1.1//EN" "http://www.w3.org/Graphics/SVG/1.1/DTD/svg11.dtd">
<svg xmlns="http://www.w3.org/2000/svg" xmlns:xlink="http://www.w3.org/1999/xlink" version="1.1" width="24pt" height="24pt" viewBox="0 0 24 24">
<g enable-background="new">
<clipPath id="cp0">
<path transform="matrix(1,0,0,-1,0,24)" d="M 2.2 5 L 21.800002 5 L 21.800002 18.8 L 2.2 18.8 Z "/>
</clipPath>
<g clip-path="url(#cp0)">
<path transform="matrix(1,0,0,-1,0,24)" d="M -2.8 23.8 L 26.8 23.8 L 26.8 0 L -2.8 0 Z " fill="#ffffff"/>
</g>
<clipPath id="cp1">
<path transform="matrix(1,0,0,-1,0,24)" d="M 3.2 4 L 22.800002 4 L 22.800002 17.8 L 3.2 17.8 Z "/>
</clipPath>
<g clip-path="url(#cp1)">
<path transform="matrix(1,0,0,-1,0,24)" d="M -1.8 22.8 L 27.8 22.8 L 27.8 -1 L -1.8 -1 Z " fill="#ffc900"/>
</g>
<clipPath id="cp2">
<path transform="matrix(1,0,0,-1,0,24)" d="M 22.05 19.05 L 1.95 19.05 L 1.95 9.25 L 22.05 9.25 L 22.05 19.05 Z M 21.55 18.55 L 21.55 9.75 L 2.449 9.75 L 2.449 18.55 L 21.55 18.55 Z "/>
</clipPath>
<g clip-path="url(#cp2)">
<path transform="matrix(1,0,0,-1,0,24)" d="M -3.05 24.05 L 27.05 24.05 L 27.05 4.25 L -3.05 4.25 Z " fill="#292525"/>
</g>
<clipPath id="cp3">
<path transform="matrix(1,0,0,-1,0,24)" d="M 2.45 6.6 L 2.449 5.25 L 21.65 5.25 L 21.65 6.6 L 22.15 6.6 L 22.15 4.75 L 1.95 4.75 L 1.95 6.6 L 2.45 6.6 Z "/>
</clipPath>
<g clip-path="url(#cp3)">
<path transform="matrix(1,0,0,-1,0,24)" d="M -3.05 11.6 L 27.15 11.6 L 27.15 -.25 L -3.05 -.25 Z " fill="#292525"/>
</g>
<clipPath id="cp4">
<path transform="matrix(1,0,0,-1,0,24)" d="M 2.45 8.1 L 2.449 6.75 L 21.65 6.75 L 21.65 8.1 L 22.15 8.1 L 22.15 6.25 L 1.95 6.25 L 1.95 8.1 L 2.45 8.1 Z "/>
</clipPath>
<g clip-path="url(#cp4)">
<path transform="matrix(1,0,0,-1,0,24)" d="M -3.05 13.1 L 27.15 13.1 L 27.15 1.25 L -3.05 1.25 Z " fill="#292525"/>
</g>
<clipPath id="cp5">
<path transform="matrix(1,0,0,-1,0,24)" d="M 2.45 9.6 L 2.449 8.251 L 21.65 8.251 L 21.65 9.6 L 22.15 9.6 L 22.15 7.75 L 1.95 7.75 L 1.95 9.6 L 2.45 9.6 Z "/>
</clipPath>
<g clip-path="url(#cp5)">
<path transform="matrix(1,0,0,-1,0,24)" d="M -3.05 14.6 L 27.15 14.6 L 27.15 2.75 L -3.05 2.75 Z " fill="#292525"/>
</g>
<clipPath id="cp6">
<path transform="matrix(1,0,0,-1,0,24)" d="M 4.55 18.7 C 4.55 17.4817 3.59125 16.44023 2.361837 16.35555 L 2.2 16.35 L 2.2 16.85 C 3.177324 16.85 3.971083 17.62213 4.044463 18.5584 L 4.05 18.7 L 4.55 18.7 Z "/>
</clipPath>
<g clip-path="url(#cp6)">
<path transform="matrix(1,0,0,-1,0,24)" d="M -2.8 23.7 L 9.55 23.7 L 9.55 11.35 L -2.8 11.35 Z " fill="#292525"/>
</g>
<clipPath id="cp7">
<path transform="matrix(1,0,0,-1,0,24)" d="M 19.95 18.8 C 19.95 17.82268 20.72213 17.02892 21.6584 16.95554 L 21.8 16.95 L 21.8 16.45 C 20.5817 16.45 19.54023 17.40875 19.45555 18.63816 L 19.45 18.8 L 19.95 18.8 Z "/>
</clipPath>
<g clip-path="url(#cp7)">
<path transform="matrix(1,0,0,-1,0,24)" d="M 14.45 23.8 L 26.8 23.8 L 26.8 11.45 L 14.45 11.45 Z " fill="#292525"/>
</g>
<clipPath id="cp8">
<path transform="matrix(1,0,0,-1,0,24)" d="M 21.8 11.85 L 21.8 11.35 C 20.84883 11.35 20.03141 10.60278 19.95571 9.645155 L 19.95 9.5 L 19.45 9.5 C 19.45 10.75165 20.44071 11.76255 21.64216 11.84462 L 21.8 11.85 Z "/>
</clipPath>
<g clip-path="url(#cp8)">
<path transform="matrix(1,0,0,-1,0,24)" d="M 14.45 16.85 L 26.8 16.85 L 26.8 4.5 L 14.45 4.5 Z " fill="#292525"/>
</g>
<clipPath id="cp9">
<path transform="matrix(1,0,0,-1,0,24)" d="M 2.2 11.85 C 3.451648 11.85 4.462551 10.85929 4.544619 9.657842 L 4.55 9.5 L 4.05 9.5 C 4.05 10.45117 3.30278 11.26859 2.345155 11.34429 L 2.2 11.35 L 2.2 11.85 Z "/>
</clipPath>
<g clip-path="url(#cp9)">
<path transform="matrix(1,0,0,-1,0,24)" d="M -2.8 16.85 L 9.55 16.85 L 9.55 4.5 L -2.8 4.5 Z " fill="#292525"/>
</g>
<clipPath id="cp10">
<path transform="matrix(1,0,0,-1,0,24)" d="M 12 17.45 C 10.16193 17.45 8.65 15.93807 8.65 14.1 C 8.65 12.22794 10.0951 10.75 12 10.75 C 13.9213 10.75 15.45 12.24547 15.45 14.1 C 15.45 15.92248 13.85459 17.45 12 17.45 Z "/>
</clipPath>
<g clip-path="url(#cp10)">
<path transform="matrix(1,0,0,-1,0,24)" d="M 3.65 22.45 L 20.45 22.45 L 20.45 5.75 L 3.65 5.75 Z " fill="#292525"/>
</g>
<clipPath id="cp11">
<path transform="matrix(1,0,0,-1,0,24)" d="M 12 16.95 C 13.58319 16.95 14.95 15.64135 14.95 14.1 C 14.95 12.5241 13.64759 11.25 12 11.25 C 10.37379 11.25 9.15 12.5016 9.15 14.1 C 9.15 15.66193 10.43807 16.95 12 16.95 Z "/>
</clipPath>
<g clip-path="url(#cp11)">
<path transform="matrix(1,0,0,-1,0,24)" d="M 4.15 21.95 L 19.95 21.95 L 19.95 6.25 L 4.15 6.25 Z " fill="#ffffff"/>
</g>
<clipPath id="cp12">
<path transform="matrix(1,0,0,-1,0,24)" d="M 5.9 15.15 C 5.290172 15.15 4.85 14.66981 4.85 14.1 C 4.85 13.49017 5.330187 13.05 5.9 13.05 C 6.509828 13.05 6.95 13.53019 6.95 14.1 C 6.95 14.66981 6.509828 15.15 5.9 15.15 Z M 5.9 14.65 C 6.223505 14.65 6.45 14.40291 6.45 14.1 C 6.45 13.79709 6.223505 13.55 5.9 13.55 C 5.597085 13.55 5.35 13.7765 5.35 14.1 C 5.35 14.40291 5.576495 14.65 5.9 14.65 Z "/>
</clipPath>
<g clip-path="url(#cp12)">
<path transform="matrix(1,0,0,-1,0,24)" d="M -.15 20.15 L 11.95 20.15 L 11.95 8.05 L -.15 8.05 Z " fill="#292525"/>
</g>
<clipPath id="cp13">
<path transform="matrix(1,0,0,-1,0,24)" d="M 18.1 15.15 C 17.49017 15.15 17.05 14.66981 17.05 14.1 C 17.05 13.49017 17.53019 13.05 18.1 13.05 C 18.70983 13.05 19.15 13.53019 19.15 14.1 C 19.15 14.63807 18.63807 15.15 18.1 15.15 Z M 18.1 14.65 C 18.36193 14.65 18.65 14.36193 18.65 14.1 C 18.65 13.79709 18.4235 13.55 18.1 13.55 C 17.79709 13.55 17.55 13.7765 17.55 14.1 C 17.55 14.40291 17.7765 14.65 18.1 14.65 Z "/>
</clipPath>
<g clip-path="url(#cp13)">
<path transform="matrix(1,0,0,-1,0,24)" d="M 12.05 20.15 L 24.15 20.15 L 24.15 8.05 L 12.05 8.05 Z " fill="#292525"/>
</g>
<clipPath id="cp14">
<path transform="matrix(1,0,0,-1,0,24)" d="M 11.86 12.44759 C 11.564 12.46408 11.278 12.54181 11.004 12.68198 L 11.004 13.47585 C 11.161 13.38045 11.331 13.30271 11.515 13.24028 C 11.699 13.17668 11.861 13.14488 12 13.14488 C 12.115 13.14488 12.199 13.16137 12.253 13.19435 C 12.306 13.22733 12.333 13.28151 12.333 13.35807 C 12.333 13.41107 12.314 13.45465 12.276 13.49234 C 12.237 13.52886 12.172 13.57008 12.083 13.61602 C 11.992 13.66196 11.871 13.71849 11.718 13.78327 C 11.547 13.85866 11.408 13.94229 11.302 14.03651 C 11.196 14.12956 11.12 14.23322 11.072 14.34865 C 11.024 14.46408 11 14.60777 11 14.77974 C 11 15.04358 11.071 15.24853 11.215 15.39694 C 11.359 15.54535 11.573 15.63722 11.86 15.67256 L 11.86 16 L 12.28 16 L 12.28 15.67727 C 12.549 15.6596 12.821 15.58186 13.094 15.44287 L 12.853 14.7609 C 12.57 14.91048 12.315 14.98587 12.088 14.98587 C 11.979 14.98587 11.903 14.97055 11.859 14.93993 C 11.816 14.90813 11.794 14.86219 11.794 14.80212 C 11.794 14.74912 11.809 14.70554 11.841 14.67138 C 11.873 14.63722 11.928 14.59953 12.006 14.55713 C 12.085 14.51472 12.194 14.46525 12.333 14.40989 C 12.616 14.29211 12.819 14.15783 12.942 14.00707 C 13.065 13.8563 13.127 13.66196 13.127 13.42521 C 13.127 13.15783 13.054 12.93993 12.911 12.77267 C 12.767 12.60542 12.556 12.50177 12.28 12.46172 L 12.28 12 L 11.86 12 L 11.86 12.44759 Z " fill-rule="evenodd"/>
</clipPath>
<g clip-path="url(#cp14)">
<path transform="matrix(1,0,0,-1,0,24)" d="M 6 21 L 18.127 21 L 18.127 7 L 6 7 Z " fill="#292525"/>
</g>
</g>
</svg>
