<?xml version="1.0" encoding="UTF-8" standalone="no"?>
<!DOCTYPE svg PUBLIC "-//W3C//DTD SVG 1.1//EN" "http://www.w3.org/Graphics/SVG/1.1/DTD/svg11.dtd">
<svg xmlns="http://www.w3.org/2000/svg" xmlns:xlink="http://www.w3.org/1999/xlink" version="1.1" width="24pt" height="24pt" viewBox="0 0 24 24">
<g enable-background="new">
<clipPath id="cp0">
<path transform="matrix(1,0,0,-1,0,24)" d="M 3.6864 5.5981 C 2.755147 5.5981 2.0004 6.35321 2.0004 7.2851 L 2.0004 17.3131 C 2.0004 18.24449 2.755647 19.0001 3.6874 19.0001 L 19.8476 19.0001 C 20.77867 19.0001 21.5346 18.24417 21.5346 17.3131 L 21.5346 7.2851 C 21.5346 6.353347 20.77899 5.5981 19.8476 5.5981 Z "/>
</clipPath>
<g clip-path="url(#cp0)">
<path transform="matrix(1,0,0,-1,0,24)" d="M -2.9996 24.0001 L 26.5346 24.0001 L 26.5346 .5981 L -2.9996 .5981 Z " fill="#ffffff"/>
</g>
<clipPath id="cp1">
<path transform="matrix(1,0,0,-1,0,24)" d="M 19.46911 14.76545 L 17.23455 17 L 15 14.76545 L 17.23455 12.53089 L 19.46911 14.76545 Z M 17.23415 16.29325 L 18.76215 14.76525 L 17.23415 13.23825 L 15.70715 14.76525 L 17.23415 16.29325 Z "/>
</clipPath>
<g clip-path="url(#cp1)">
<path transform="matrix(1,0,0,-1,0,24)" d="M 10 22 L 24.46911 22 L 24.46911 7.530893 L 10 7.530893 Z " fill="#292525"/>
</g>
<clipPath id="cp2">
<path transform="matrix(1,0,0,-1,0,24)" d="M 7.0864 17.7501 L 4.6874 17.7501 C 3.8934 17.7501 3.2504 17.1061 3.2504 16.3131 L 3.2504 6.2851 C 3.2504 5.4911 3.8934 4.8481 4.6864 4.8481 L 7.6464 4.8481 L 13.8174 11.0191 L 7.0864 17.7501 Z " fill-rule="evenodd"/>
</clipPath>
<g clip-path="url(#cp2)">
<path transform="matrix(1,0,0,-1,0,24)" d="M -1.7496 22.7501 L 18.8174 22.7501 L 18.8174 -.1519 L -1.7496 -.1519 Z " fill="#ffc708"/>
</g>
<clipPath id="cp3">
<path transform="matrix(1,0,0,-1,0,24)" d="M 6.263177 18.92688 L 6.0864 19.0001 L 3.6874 19.0001 C 2.755647 19.0001 2.0004 18.24449 2.0004 17.3131 L 2.0004 7.2851 C 2.0004 6.35321 2.755147 5.5981 3.6864 5.5981 L 6.6464 5.5981 L 6.823177 5.671323 L 13.17095 12.0191 L 6.263177 18.92688 Z M 12.464 12.019 L 6.543 6.099 L 3.6864 6.0981 C 3.031344 6.0981 2.5004 6.629299 2.5004 7.2851 L 2.5004 17.3131 L 2.506528 17.43442 C 2.567315 18.03279 3.072816 18.5001 3.6874 18.5001 L 5.982 18.501 L 12.464 12.019 Z "/>
</clipPath>
<g clip-path="url(#cp3)">
<path transform="matrix(1,0,0,-1,0,24)" d="M -2.9996 24.0001 L 18.17095 24.0001 L 18.17095 .5981 L -2.9996 .5981 Z " fill="#292525"/>
</g>
<clipPath id="cp4">
<path transform="matrix(1,0,0,-1,0,24)" d="M 19.8476 19.0001 L 5.483047 19.0001 L 12.463 12.02 L 6.041977 5.5981 L 19.8476 5.5981 C 20.77899 5.5981 21.5346 6.353347 21.5346 7.2851 L 21.5346 17.3131 C 21.5346 18.24417 20.77867 19.0001 19.8476 19.0001 Z M 13.17117 12.01909 L 6.689 18.501 L 19.8476 18.5001 C 20.50253 18.5001 21.0346 17.96803 21.0346 17.3131 L 21.0346 7.2851 L 21.02847 7.163737 C 20.96765 6.565189 20.46194 6.0981 19.8476 6.0981 L 7.249 6.099 L 13.17117 12.01909 Z "/>
</clipPath>
<g clip-path="url(#cp4)">
<path transform="matrix(1,0,0,-1,0,24)" d="M .4830466 24.0001 L 26.5346 24.0001 L 26.5346 .5981 L .4830466 .5981 Z " fill="#292525"/>
</g>
<clipPath id="cp5">
<path transform="matrix(1,0,0,-1,0,24)" d="M 2.247471 13.98612 L 2.253329 14.48608 L 2.732931 14.4743 L 3.655506 14.4352 C 3.765108 14.42948 3.876906 14.42328 3.990733 14.41657 C 5.292142 14.33988 6.5938 14.21403 7.8103 14.02749 C 10.19879 13.66124 11.9591 13.11189 12.86476 12.31696 L 12.99418 12.19588 L 12.64062 11.84232 C 11.88106 12.60188 10.13947 13.16449 7.734516 13.53326 C 6.535138 13.71718 5.248355 13.8416 3.961322 13.91744 L 3.310895 13.95146 L 2.247471 13.98612 Z "/>
</clipPath>
<g clip-path="url(#cp5)">
<path transform="matrix(1,0,0,-1,0,24)" d="M -2.752529 19.48608 L 17.99418 19.48608 L 17.99418 6.842323 L -2.752529 6.842323 Z " fill="#292525"/>
</g>
<clipPath id="cp6">
<path transform="matrix(1,0,0,-1,0,24)" d="M 12.64062 12.19588 L 12.99418 11.84232 C 12.13356 10.98171 10.31822 10.39528 7.8103 10.01071 C 6.5938 9.824174 5.292142 9.698316 3.990733 9.62163 L 3.655506 9.602997 L 2.603851 9.559971 L 2.253329 9.552117 L 2.247471 10.05208 L 2.716964 10.06364 L 3.310895 10.08674 C 3.518739 10.0962 3.735999 10.10749 3.961322 10.12076 C 5.248355 10.1966 6.535138 10.32102 7.734516 10.50494 C 10.02495 10.85615 11.71369 11.38317 12.52547 12.08871 L 12.64062 12.19588 Z "/>
</clipPath>
<g clip-path="url(#cp6)">
<path transform="matrix(1,0,0,-1,0,24)" d="M -2.752529 17.19588 L 17.99418 17.19588 L 17.99418 4.552117 L -2.752529 4.552117 Z " fill="#292525"/>
</g>
<clipPath id="cp7">
<path transform="matrix(1,0,0,-1,0,24)" d="M 7.6221 10.2737 L 8.1221 10.2737 L 8.1221 13.7647 L 7.6221 13.7647 Z "/>
</clipPath>
<g clip-path="url(#cp7)">
<path transform="matrix(1,0,0,-1,0,24)" d="M 2.6221 18.7647 L 13.1221 18.7647 L 13.1221 5.2737 L 2.6221 5.2737 Z " fill="#292525"/>
</g>
<clipPath id="cp8">
<path transform="matrix(1,0,0,-1,0,24)" d="M 16 9 L 16 8.5 L 13 8.5 L 13 9 L 16 9 Z M 19 9 L 19 8.5 L 17 8.5 L 17 9 L 19 9 Z "/>
</clipPath>
<g clip-path="url(#cp8)">
<path transform="matrix(1,0,0,-1,0,24)" d="M 8 14 L 24 14 L 24 3.5 L 8 3.5 Z " fill="#292525"/>
</g>
</g>
</svg>
