<?xml version="1.0" encoding="UTF-8" standalone="no"?>
<svg
   xmlns:dc="http://purl.org/dc/elements/1.1/"
   xmlns:cc="http://creativecommons.org/ns#"
   xmlns:rdf="http://www.w3.org/1999/02/22-rdf-syntax-ns#"
   xmlns:svg="http://www.w3.org/2000/svg"
   xmlns="http://www.w3.org/2000/svg"
   viewBox="0 0 32 32"
   height="32"
   width="32"
   xml:space="preserve"
   id="svg2"
   version="1.1"><metadata
     id="metadata8"><rdf:RDF><cc:Work
         rdf:about=""><dc:format>image/svg+xml</dc:format><dc:type
           rdf:resource="http://purl.org/dc/dcmitype/StillImage" /></cc:Work></rdf:RDF></metadata><defs
     id="defs6"><clipPath
       id="clipPath20"
       clipPathUnits="userSpaceOnUse"><path
         style="clip-rule:evenodd"
         id="path18"
         d="m 17.9453,8.7196 h -0.5 c 0,-0.332159 -0.53838,-0.712 -1.002,-0.712 -0.35382,0 -0.79363,0.230515 -0.88002,0.460063 L 15.0793,8.3796 v -2.775 c 0,-1.443755 1.17161,-2.614 2.616,-2.614 l 0.16545,0.00514 c 1.31302,0.081838 2.36255,1.131052 2.44441,2.443486 l 0.0061,0.165374 v 2.775 L 19.8275,8.468225 C 19.74023,8.237935 19.30076,8.0076 18.9463,8.0076 c -0.46276,0 -1.001,0.379934 -1.001,0.712 z" /></clipPath><clipPath
       id="clipPath30"
       clipPathUnits="userSpaceOnUse"><path
         style="clip-rule:evenodd"
         id="path28"
         d="m 11.4729,18.9996 c -1.766236,0 -3.198,-1.43109 -3.198,-3.197 0,-1.76607 1.431929,-3.198 3.198,-3.198 1.76591,0 3.197,1.43176 3.197,3.198 0,1.76607 -1.43093,3.197 -3.197,3.197 z" /></clipPath><clipPath
       id="clipPath40"
       clipPathUnits="userSpaceOnUse"><path
         style="clip-rule:evenodd"
         id="path38"
         d="m 14.3295,6.6049 v 0 2.775 c 0.137,-0.364 0.702,-0.623 1.114,-0.623 0.365,0 0.816,0.206 1.064,0.507 -1.136,1.57 -2.977,2.595 -5.062,2.595 -3.452,0 -6.25,-2.798 -6.25,-6.25 h 9.361 c -0.142,0.304 -0.227,0.639 -0.227,0.996" /></clipPath><clipPath
       id="clipPath50"
       clipPathUnits="userSpaceOnUse"><path
         style="clip-rule:evenodd"
         id="path48"
         d="m 15.3295,5.6049 v 0 2.775 c 0.137,-0.364 0.702,-0.623 1.114,-0.623 0.365,0 0.816,0.206 1.064,0.507 -1.136,1.57 -2.977,2.595 -5.062,2.595 -3.452,0 -6.25,-2.798 -6.25,-6.25 h 9.361 c -0.142,0.304 -0.227,0.639 -0.227,0.996" /></clipPath><clipPath
       id="clipPath60"
       clipPathUnits="userSpaceOnUse"><path
         id="path58"
         d="m 17.9453,8.7196 h -0.5 c 0,-0.332159 -0.53838,-0.712 -1.002,-0.712 -0.35382,0 -0.79363,0.230515 -0.88002,0.460063 L 15.0793,8.3796 v -2.775 c 0,-1.443755 1.17161,-2.614 2.616,-2.614 l 0.16545,0.00514 c 1.31302,0.081838 2.36255,1.131052 2.44441,2.443486 l 0.0061,0.165374 v 2.775 L 19.8275,8.468225 C 19.74023,8.237935 19.30076,8.0076 18.9463,8.0076 c -0.46276,0 -1.001,0.379934 -1.001,0.712 z M 17.695,8.094 17.70279,8.083763 C 17.99399,7.741648 18.48749,7.5076 18.9463,7.5076 l 0.12674,0.00581 c 0.2131,0.019193 0.43338,0.085145 0.62928,0.18566 L 19.811,7.761 19.8103,5.6046 c 0,-1.168067 -0.94621,-2.114 -2.115,-2.114 L 17.54421,3.49591 C 16.44631,3.573324 15.5793,4.487878 15.5793,5.6046 L 15.579,7.761 15.68737,7.699255 C 15.92245,7.578531 16.19272,7.5076 16.4433,7.5076 c 0.40831,0 0.84381,0.184872 1.14015,0.466231 z" /></clipPath><clipPath
       id="clipPath70"
       clipPathUnits="userSpaceOnUse"><path
         style="clip-rule:evenodd"
         id="path68"
         d="m 15.4199,14.8026 c 0,-1.628 -1.319,-2.948 -2.947,-2.948 -1.628,0 -2.948,1.32 -2.948,2.948 0,1.628 1.32,2.947 2.948,2.947 1.628,0 2.947,-1.319 2.947,-2.947" /></clipPath><clipPath
       id="clipPath80"
       clipPathUnits="userSpaceOnUse"><path
         id="path78"
         d="m 11.4729,18.9996 c -1.766236,0 -3.198,-1.43109 -3.198,-3.197 0,-1.76607 1.431929,-3.198 3.198,-3.198 1.76591,0 3.197,1.43176 3.197,3.198 0,1.76607 -1.43093,3.197 -3.197,3.197 z m 0,-0.5 c 1.48993,0 2.697,-1.20707 2.697,-2.697 0,-1.49015 -1.20729,-2.698 -2.697,-2.698 -1.489929,0 -2.698,1.20807 -2.698,2.698 0,1.48971 1.207854,2.697 2.698,2.697 z" /></clipPath><clipPath
       id="clipPath90"
       clipPathUnits="userSpaceOnUse"><path
         id="path88"
         d="m 11.4725,12.105 c 1.96197,0 3.77936,-0.87975 4.9978,-2.359466 L 16.6327,9.540062 16.2343,9.237938 C 15.11192,10.71798 13.36551,11.605 11.4725,11.605 8.323522,11.605 5.743888,9.168501 5.515882,6.077788 L 5.504,5.882 h 8.4435 v -0.5 h -8.948 v 0.25 c 0,3.575071 2.897929,6.473 6.473,6.473 z" /></clipPath><clipPath
       id="clipPath100"
       clipPathUnits="userSpaceOnUse"><path
         id="path98"
         d="m 12.01925,11.9489 0.252,-0.621 L 12.25951,11.11498 12.044,10.718 12.28815,8.465793 12.2559,8.313539 11.38493,6.810778 10.67879,8.333739 10.65705,8.465793 10.901,10.716 l -0.21531,0.39898 -0.01174,0.21292 0.252,0.621 0.4633,-0.188 L 11.181,11.249 11.37751,10.88682 11.40615,10.74101 11.161,8.482 l 0.273,-0.588 0.348,0.601 -0.24295,2.24601 0.02864,0.14581 0.19531,0.36218 -0.20705,0.5119 z" /></clipPath><clipPath
       id="clipPath110"
       clipPathUnits="userSpaceOnUse"><path
         style="clip-rule:evenodd"
         id="path108"
         d="m 17.6953,5.1639 -0.615,0.614 0.615,0.615 0.614,-0.615 z" /></clipPath><clipPath
       id="clipPath120"
       clipPathUnits="userSpaceOnUse"><path
         id="path118"
         d="M 17.69544,6.746597 16.7266,5.777756 17.69544,4.81049 18.66271,5.777756 Z M 17.695,6.04 17.956,5.779 17.694,5.517 17.433,5.778 Z" /></clipPath></defs><g
     transform="matrix(1.3333333,0,0,-1.3333333,0,32)"
     id="g10"><g
       id="g12" /><g
       id="g14"><g
         clip-path="url(#clipPath20)"
         id="g16"><path
           id="path22"
           style="fill:#ffffff;fill-opacity:1;fill-rule:nonzero;stroke:none"
           d="m 10.0793,13.7196 h 15.232 v -15.729 h -15.232 z" /></g></g><g
       id="g24"><g
         clip-path="url(#clipPath30)"
         id="g26"><path
           id="path32"
           style="fill:#ffffff;fill-opacity:1;fill-rule:nonzero;stroke:none"
           d="m 3.2749,23.9996 h 16.395 V 7.6046 H 3.2749 Z" /></g></g><g
       id="g34"><g
         clip-path="url(#clipPath40)"
         id="g36"><path
           id="path42"
           style="fill:#ffffff;fill-opacity:1;fill-rule:nonzero;stroke:none"
           d="m 0.1955,16.8589 h 21.312 V 0.6089 H 0.1955 Z" /></g></g><g
       id="g44"><g
         clip-path="url(#clipPath50)"
         id="g46"><path
           id="path52"
           style="fill:#ffc708;fill-opacity:1;fill-rule:nonzero;stroke:none"
           d="m 1.1955,15.8589 h 21.312 v -16.25 H 1.1955 Z" /></g></g><g
       id="g54"><g
         clip-path="url(#clipPath60)"
         id="g56"><path
           id="path62"
           style="fill:#292525;fill-opacity:1;fill-rule:nonzero;stroke:none"
           d="m 10.0793,13.7196 h 15.232 v -15.729 h -15.232 z" /></g></g><g
       id="g64"><g
         clip-path="url(#clipPath70)"
         id="g66"><path
           id="path72"
           style="fill:#ffc708;fill-opacity:1;fill-rule:nonzero;stroke:none"
           d="m 4.5249,22.7496 h 15.895 V 6.8546 H 4.5249 Z" /></g></g><g
       id="g74"><g
         clip-path="url(#clipPath80)"
         id="g76"><path
           id="path82"
           style="fill:#292525;fill-opacity:1;fill-rule:nonzero;stroke:none"
           d="m 3.2749,23.9996 h 16.395 V 7.6046 H 3.2749 Z" /></g></g><g
       id="g84"><g
         clip-path="url(#clipPath90)"
         id="g86"><path
           id="path92"
           style="fill:#292525;fill-opacity:1;fill-rule:nonzero;stroke:none"
           d="M -5e-4,17.105 H 21.6327 V 0.382 H -5e-4 Z" /></g></g><g
       id="g94"><g
         clip-path="url(#clipPath100)"
         id="g96"><path
           id="path102"
           style="fill:#292525;fill-opacity:1;fill-rule:nonzero;stroke:none"
           d="M 5.657051,16.9489 H 17.28815 V 1.810778 H 5.657051 Z" /></g></g><g
       id="g104"><g
         clip-path="url(#clipPath110)"
         id="g106"><path
           id="path112"
           style="fill:#ffffff;fill-opacity:1;fill-rule:nonzero;stroke:none"
           d="m 12.0803,11.3929 h 11.229 V 0.1639 h -11.229 z" /></g></g><g
       id="g114"><g
         clip-path="url(#clipPath120)"
         id="g116"><path
           id="path122"
           style="fill:#292525;fill-opacity:1;fill-rule:nonzero;stroke:none"
           d="M 11.7266,11.7466 H 23.66271 V -0.1895096 H 11.7266 Z" /></g></g></g></svg>