<svg width="24" height="24" xmlns="http://www.w3.org/2000/svg"><g fill="none" fill-rule="evenodd"><path fill="#FFF" d="M12.184 19.999V3L4 5.13V20z"/><path fill="#FFF" d="M11.684 6.842V20h8.185V8.972z"/><path fill="#FFC708" d="M5.25 6.324v14.425h15.368V10.166l-7.684-2.001V4.324z"/><path d="M12.184 19.999V3L4 5.13V20h8.184zm-.5-16.353v15.852H4.499V5.516l7.185-1.87z" fill="#292525" fill-rule="nonzero"/><path d="M11.684 6.842V20h8.185V8.972l-8.185-2.13zm.499.646l7.186 1.87v10.14h-7.186V7.488z" fill="#292525" fill-rule="nonzero"/><path fill="#FFF" d="M5.402 10.787h1.021V9.492H5.402z"/><path d="M6.673 9.242H5.152v1.795h1.521V9.242zm-.5.5v.795h-.521v-.795h.521z" fill="#292525" fill-rule="nonzero"/><path fill="#FFF" d="M7.581 10.787h1.021V9.492H7.581z"/><path d="M8.852 9.242H7.331v1.795h1.521V9.242zm-.5.5v.795H7.83v-.795h.522z" fill="#292525" fill-rule="nonzero"/><path fill="#FFF" d="M9.761 10.787h1.021V9.492H9.761z"/><path d="M11.032 9.242H9.511v1.795h1.521V9.242zm-.5.5v.795h-.521v-.795h.521z" fill="#292525" fill-rule="nonzero"/><path fill="#FFF" d="M5.402 13.407h1.021v-1.295H5.402z"/><path d="M6.673 11.862H5.152v1.795h1.521v-1.795zm-.5.5v.795h-.521v-.795h.521z" fill="#292525" fill-rule="nonzero"/><path fill="#FFF" d="M7.581 13.407h1.021v-1.295H7.581z"/><path d="M8.852 11.862H7.331v1.795h1.521v-1.795zm-.5.5v.795H7.83v-.795h.522z" fill="#292525" fill-rule="nonzero"/><path fill="#FFF" d="M9.761 13.407h1.021v-1.295H9.761z"/><path d="M11.032 11.862H9.511v1.795h1.521v-1.795zm-.5.5v.795h-.521v-.795h.521z" fill="#292525" fill-rule="nonzero"/><path fill="#FFF" d="M13.087 11.634h1.021V10.49h-1.021z"/><path d="M14.358 10.24h-1.521v1.644h1.521V10.24zm-.5.5v.644h-.521v-.644h.521z" fill="#292525" fill-rule="nonzero"/><path fill="#FFF" d="M15.266 11.634h1.021V10.49h-1.021z"/><path d="M16.537 10.24h-1.521v1.644h1.521V10.24zm-.501.5v.644h-.52v-.644h.52z" fill="#292525" fill-rule="nonzero"/><path fill="#FFF" d="M17.445 11.634h1.021V10.49h-1.021z"/><path d="M18.716 10.24h-1.521v1.644h1.521V10.24zm-.5.5v.644h-.521v-.644h.521z" fill="#292525" fill-rule="nonzero"/><path fill="#FFF" d="M13.087 13.947h1.021v-1.144h-1.021z"/><path d="M14.358 12.553h-1.521v1.644h1.521v-1.644zm-.5.5v.644h-.521v-.644h.521z" fill="#292525" fill-rule="nonzero"/><path fill="#FFF" d="M15.266 13.947h1.021v-1.144h-1.021z"/><path d="M16.537 12.553h-1.521v1.644h1.521v-1.644zm-.501.5v.644h-.52v-.644h.52z" fill="#292525" fill-rule="nonzero"/><path fill="#FFF" d="M17.445 13.947h1.021v-1.144h-1.021z"/><path d="M18.716 12.553h-1.521v1.644h1.521v-1.644zm-.5.5v.644h-.521v-.644h.521z" fill="#292525" fill-rule="nonzero"/><path fill="#FFF" d="M6.868 19.75h2.449V16.7H6.868z"/><path d="M9.567 16.45H6.618V20h2.949v-3.55zm-.5.499v2.55H7.118v-2.55h1.949z" fill="#292525" fill-rule="nonzero"/><path d="M8.092 19.748V16.7v3.05z" fill="#FFF"/><path fill="#292525" fill-rule="nonzero" d="M8.342 16.699v3.05h-.5v-3.05z"/><path fill="#FFF" d="M13.79 19.75h3.974V16.7H13.79z"/><path d="M18.014 16.45H13.54V20h4.474v-3.55zm-.5.499v2.55H14.04v-2.55h3.474z" fill="#292525" fill-rule="nonzero"/><path fill="#292525" fill-rule="nonzero" d="M16.84 17.455v.5h-2.137v-.5zm.005 1.039v.5h-2.137v-.5z"/></g></svg>