<?xml version="1.0" encoding="UTF-8" standalone="no"?>
<!DOCTYPE svg PUBLIC "-//W3C//DTD SVG 1.1//EN" "http://www.w3.org/Graphics/SVG/1.1/DTD/svg11.dtd">
<svg xmlns="http://www.w3.org/2000/svg" xmlns:xlink="http://www.w3.org/1999/xlink" version="1.1" width="24pt" height="24pt" viewBox="0 0 24 24">
<g enable-background="new">
<clipPath id="cp0">
<path transform="matrix(1,0,0,-1,0,24)" d="M 11.2849 20 C 6.708988 20 2.9999 16.29123 2.9999 11.716 C 2.9999 7.140588 6.709169 3.431 11.2849 3.431 C 15.85979 3.431 19.5689 7.140748 19.5689 11.716 C 19.5689 16.29107 15.85997 20 11.2849 20 Z " fill-rule="evenodd"/>
</clipPath>
<g clip-path="url(#cp0)">
<path transform="matrix(1,0,0,-1,0,24)" d="M -2.0001 25 L 24.5689 25 L 24.5689 -1.569 L -2.0001 -1.569 Z " fill="#ffffff"/>
</g>
<clipPath id="cp1">
<path transform="matrix(1,0,0,-1,0,24)" d="M 20.3189 10.716 C 20.3189 6.279 16.7219 2.681 12.2849 2.681 C 7.8469 2.681 4.2499 6.279 4.2499 10.716 C 4.2499 15.153 7.8469 18.75 12.2849 18.75 C 16.7219 18.75 20.3189 15.153 20.3189 10.716 " fill-rule="evenodd"/>
</clipPath>
<g clip-path="url(#cp1)">
<path transform="matrix(1,0,0,-1,0,24)" d="M -.7501 23.75 L 25.3189 23.75 L 25.3189 -2.319 L -.7501 -2.319 Z " fill="#ffc708"/>
</g>
<clipPath id="cp2">
<path transform="matrix(1,0,0,-1,0,24)" d="M 11.2849 20 C 6.708988 20 2.9999 16.29123 2.9999 11.716 C 2.9999 7.140588 6.709169 3.431 11.2849 3.431 C 15.85979 3.431 19.5689 7.140748 19.5689 11.716 C 19.5689 16.29107 15.85997 20 11.2849 20 Z M 11.2849 19.5 C 15.58383 19.5 19.0689 16.01493 19.0689 11.716 C 19.0689 7.416871 15.58363 3.931 11.2849 3.931 C 6.985321 3.931 3.4999 7.416721 3.4999 11.716 C 3.4999 16.01508 6.985121 19.5 11.2849 19.5 Z "/>
</clipPath>
<g clip-path="url(#cp2)">
<path transform="matrix(1,0,0,-1,0,24)" d="M -2.0001 25 L 24.5689 25 L 24.5689 -1.569 L -2.0001 -1.569 Z " fill="#292525"/>
</g>
<clipPath id="cp3">
<path transform="matrix(1,0,0,-1,0,24)" d="M 11.2848 20 C 8.743918 20 6.7608 16.27252 6.7608 11.716 C 6.7608 7.159288 8.744007 3.431 11.2848 3.431 C 13.82543 3.431 15.8078 7.158928 15.8078 11.716 C 15.8078 16.27288 13.82551 20 11.2848 20 Z M 11.2848 19.5 C 13.464 19.5 15.3078 16.03327 15.3078 11.716 C 15.3078 7.398539 13.46389 3.931 11.2848 3.931 C 9.105495 3.931 7.2608 7.398896 7.2608 11.716 C 7.2608 16.03291 9.105382 19.5 11.2848 19.5 Z "/>
</clipPath>
<g clip-path="url(#cp3)">
<path transform="matrix(1,0,0,-1,0,24)" d="M 1.7608 25 L 20.8078 25 L 20.8078 -1.569 L 1.7608 -1.569 Z " fill="#292525"/>
</g>
<clipPath id="cp4">
<path transform="matrix(1,0,0,-1,0,24)" d="M 11.2848 20 C 8.743918 20 6.7608 16.27252 6.7608 11.716 C 6.7608 7.159288 8.744007 3.431 11.2848 3.431 C 13.82543 3.431 15.8078 7.158928 15.8078 11.716 C 15.8078 16.27288 13.82551 20 11.2848 20 Z M 11.2848 19.5 C 13.464 19.5 15.3078 16.03327 15.3078 11.716 C 15.3078 7.398539 13.46389 3.931 11.2848 3.931 C 9.105495 3.931 7.2608 7.398896 7.2608 11.716 C 7.2608 16.03291 9.105382 19.5 11.2848 19.5 Z "/>
</clipPath>
<g clip-path="url(#cp4)">
<path transform="matrix(1,0,0,-1,0,24)" d="M 1.7608 25 L 20.8078 25 L 20.8078 -1.569 L 1.7608 -1.569 Z " fill="#292525"/>
</g>
<clipPath id="cp5">
<path transform="matrix(1,0,0,-1,0,24)" d="M 11.2848 20 C 8.743918 20 6.7608 16.27252 6.7608 11.716 C 6.7608 7.159288 8.744007 3.431 11.2848 3.431 C 13.82543 3.431 15.8078 7.158928 15.8078 11.716 C 15.8078 16.27288 13.82551 20 11.2848 20 Z M 11.2848 19.5 C 13.464 19.5 15.3078 16.03327 15.3078 11.716 C 15.3078 7.398539 13.46389 3.931 11.2848 3.931 C 9.105495 3.931 7.2608 7.398896 7.2608 11.716 C 7.2608 16.03291 9.105382 19.5 11.2848 19.5 Z "/>
</clipPath>
<g clip-path="url(#cp5)">
<path transform="matrix(1,0,0,-1,0,24)" d="M 1.7608 25 L 20.8078 25 L 20.8078 -1.569 L 1.7608 -1.569 Z " fill="#292525"/>
</g>
<clipPath id="cp6">
<path transform="matrix(1,0,0,-1,0,24)" d="M 11.0347 3.6812 L 11.5347 3.6812 L 11.5347 19.7502 L 11.0347 19.7502 Z "/>
</clipPath>
<g clip-path="url(#cp6)">
<path transform="matrix(1,0,0,-1,0,24)" d="M 6.0347 24.7502 L 16.5347 24.7502 L 16.5347 -1.3188 L 6.0347 -1.3188 Z " fill="#292525"/>
</g>
<clipPath id="cp7">
<path transform="matrix(1,0,0,-1,0,24)" d="M 4.4058 15.6125 L 18.1638 15.6125 L 18.1638 16.1125 L 4.4058 16.1125 Z "/>
</clipPath>
<g clip-path="url(#cp7)">
<path transform="matrix(1,0,0,-1,0,24)" d="M -.5942 21.1125 L 23.1638 21.1125 L 23.1638 10.6125 L -.5942 10.6125 Z " fill="#292525"/>
</g>
<clipPath id="cp8">
<path transform="matrix(1,0,0,-1,0,24)" d="M 3.2501 11.465 L 19.3191 11.465 L 19.3191 11.965 L 3.2501 11.965 Z "/>
</clipPath>
<g clip-path="url(#cp8)">
<path transform="matrix(1,0,0,-1,0,24)" d="M -1.7499 16.965 L 24.3191 16.965 L 24.3191 6.465 L -1.7499 6.465 Z " fill="#292525"/>
</g>
<clipPath id="cp9">
<path transform="matrix(1,0,0,-1,0,24)" d="M 4.399 7.3185 L 18.17 7.3185 L 18.17 7.8185 L 4.399 7.8185 Z "/>
</clipPath>
<g clip-path="url(#cp9)">
<path transform="matrix(1,0,0,-1,0,24)" d="M -.601 12.8185 L 23.17 12.8185 L 23.17 2.3185 L -.601 2.3185 Z " fill="#292525"/>
</g>
</g>
</svg>
