<?xml version="1.0" encoding="UTF-8" standalone="no"?>
<!DOCTYPE svg PUBLIC "-//W3C//DTD SVG 1.1//EN" "http://www.w3.org/Graphics/SVG/1.1/DTD/svg11.dtd">
<svg xmlns="http://www.w3.org/2000/svg" xmlns:xlink="http://www.w3.org/1999/xlink" version="1.1" width="24pt" height="24pt" viewBox="0 0 24 24">
<g enable-background="new">
<clipPath id="cp0">
<path transform="matrix(1,0,0,-1,0,24)" d="M 14.8112 15.6454 C 14.8112 15.6774 14.8202 15.7064 14.8202 15.7374 L 3.2502 15.7374 L 3.2502 6.7134 L 17.9162 6.7134 L 17.9162 12.5414 C 16.2012 12.5414 14.8112 13.9314 14.8112 15.6454 " fill-rule="evenodd"/>
</clipPath>
<g clip-path="url(#cp0)">
<path transform="matrix(1,0,0,-1,0,24)" d="M -1.7498 20.7374 L 22.9162 20.7374 L 22.9162 1.7134 L -1.7498 1.7134 Z " fill="#ffffff"/>
</g>
<clipPath id="cp1">
<path transform="matrix(1,0,0,-1,0,24)" d="M 15.8112 14.6454 C 15.8112 14.6774 15.8202 14.7064 15.8202 14.7374 L 4.2502 14.7374 L 4.2502 5.7134 L 18.9162 5.7134 L 18.9162 11.5414 C 17.2012 11.5414 15.8112 12.9314 15.8112 14.6454 " fill-rule="evenodd"/>
</clipPath>
<g clip-path="url(#cp1)">
<path transform="matrix(1,0,0,-1,0,24)" d="M -.7498 19.7374 L 23.9162 19.7374 L 23.9162 .7134 L -.7498 .7134 Z " fill="#ffc708"/>
</g>
<clipPath id="cp2">
<path transform="matrix(1,0,0,-1,0,24)" d="M 17.9167 18.9994 C 16.06346 18.9994 14.5617 17.49831 14.5617 15.6454 C 14.5617 13.79316 16.0638 12.2914 17.9167 12.2914 C 19.76877 12.2914 21.2707 13.79333 21.2707 15.6454 C 21.2707 17.49814 19.7691 18.9994 17.9167 18.9994 Z " fill-rule="evenodd"/>
</clipPath>
<g clip-path="url(#cp2)">
<path transform="matrix(1,0,0,-1,0,24)" d="M 9.5617 23.9994 L 26.2707 23.9994 L 26.2707 7.2914 L 9.5617 7.2914 Z " fill="#ffffff"/>
</g>
<clipPath id="cp3">
<path transform="matrix(1,0,0,-1,0,24)" d="M 17.9167 18.9994 C 16.06346 18.9994 14.5617 17.49831 14.5617 15.6454 C 14.5617 13.79316 16.0638 12.2914 17.9167 12.2914 C 19.76877 12.2914 21.2707 13.79333 21.2707 15.6454 C 21.2707 17.49814 19.7691 18.9994 17.9167 18.9994 Z M 17.9167 18.4994 C 19.49299 18.4994 20.7707 17.22197 20.7707 15.6454 C 20.7707 14.06947 19.49263 12.7914 17.9167 12.7914 C 16.33991 12.7914 15.0617 14.06933 15.0617 15.6454 C 15.0617 17.22211 16.33956 18.4994 17.9167 18.4994 Z "/>
</clipPath>
<g clip-path="url(#cp3)">
<path transform="matrix(1,0,0,-1,0,24)" d="M 9.5617 23.9994 L 26.2707 23.9994 L 26.2707 7.2914 L 9.5617 7.2914 Z " fill="#292525"/>
</g>
<clipPath id="cp4">
<path transform="matrix(1,0,0,-1,0,24)" d="M 13.3562 15.895 L 13.3562 15.395 L 3.5 15.396 L 3.5 6.964 L 17.666 6.964 L 17.6662 11.18 L 18.1662 11.18 L 18.1662 6.464 L 3.0002 6.464 L 3.0002 15.895 L 13.3562 15.895 Z "/>
</clipPath>
<g clip-path="url(#cp4)">
<path transform="matrix(1,0,0,-1,0,24)" d="M -1.9998 20.895 L 23.1662 20.895 L 23.1662 1.464 L -1.9998 1.464 Z " fill="#292525"/>
</g>
<clipPath id="cp5">
<path transform="matrix(1,0,0,-1,0,24)" d="M 13.3558 15.895 L 13.3558 15.395 L 4.002 15.396 L 10.583 10.474 L 14.30407 13.2562 L 14.60353 12.8558 L 10.58279 9.848809 L 3.156629 15.40376 C 2.953568 15.5471 3.037376 15.8358 3.247976 15.88711 L 3.3148 15.895 L 13.3558 15.895 Z "/>
</clipPath>
<g clip-path="url(#cp5)">
<path transform="matrix(1,0,0,-1,0,24)" d="M -1.959594 20.895 L 19.60353 20.895 L 19.60353 4.848809 L -1.959594 4.848809 Z " fill="#292525"/>
</g>
<clipPath id="cp6">
<path transform="matrix(1,0,0,-1,0,24)" d="M 9.388 11.3045 L 9.388 11.052 L 9.530375 10.8504 L 4.035 6.964 L 17.129 6.964 L 11.63463 10.8504 L 11.92337 11.2586 L 18.00068 6.959513 C 18.21478 6.816773 18.1254 6.518934 17.9098 6.470286 L 17.848 6.4635 L 3.317 6.4635 C 3.081163 6.4635 2.96004 6.74088 3.106505 6.90887 L 3.158625 6.955598 L 9.241625 11.2586 L 9.388 11.3045 Z "/>
</clipPath>
<g clip-path="url(#cp6)">
<path transform="matrix(1,0,0,-1,0,24)" d="M -1.957192 16.3045 L 23.12328 16.3045 L 23.12328 1.4635 L -1.957192 1.4635 Z " fill="#292525"/>
</g>
<clipPath id="cp7">
<path transform="matrix(1,0,0,-1,0,24)" d="M 18.2272 14.2425 L 17.7462 14.2425 L 17.7462 16.1735 C 17.7462 16.4035 17.7512 16.5865 17.7632 16.7215 C 17.7312 16.6885 17.6922 16.6525 17.6472 16.6125 C 17.6012 16.5735 17.4482 16.4475 17.1882 16.2365 L 16.9472 16.5405 L 17.8262 17.2325 L 18.2272 17.2325 L 18.2272 14.2425 Z " fill-rule="evenodd"/>
</clipPath>
<g clip-path="url(#cp7)">
<path transform="matrix(1,0,0,-1,0,24)" d="M 11.9472 22.2325 L 23.2272 22.2325 L 23.2272 9.2425 L 11.9472 9.2425 Z " fill="#292525"/>
</g>
</g>
</svg>
