<?xml version="1.0" encoding="UTF-8" standalone="no"?>
<!DOCTYPE svg PUBLIC "-//W3C//DTD SVG 1.1//EN" "http://www.w3.org/Graphics/SVG/1.1/DTD/svg11.dtd">
<svg xmlns="http://www.w3.org/2000/svg" xmlns:xlink="http://www.w3.org/1999/xlink" version="1.1" width="24pt" height="24pt" viewBox="0 0 24 24">
<g enable-background="new">
<clipPath id="cp0">
<path transform="matrix(1,0,0,-1,0,24)" d="M 5 15.99 L 5 11.97 L 6.15 11.97 L 6.15 5.1 L 17.61 5.1 L 17.61 11.97 L 18.76 11.97 L 18.76 15.99 L 5 15.99 Z "/>
</clipPath>
<g clip-path="url(#cp0)">
<path transform="matrix(1,0,0,-1,0,24)" d="M 0 20.99 L 23.76 20.99 L 23.76 .1 L 0 .1 Z " fill="#ffffff"/>
</g>
<clipPath id="cp1">
<path transform="matrix(1,0,0,-1,0,24)" d="M 6 14.99 L 6 10.97 L 7.15 10.97 L 7.15 4.1 L 18.61 4.1 L 18.61 10.97 L 19.76 10.97 L 19.76 14.99 L 6 14.99 Z "/>
</clipPath>
<g clip-path="url(#cp1)">
<path transform="matrix(1,0,0,-1,0,24)" d="M 1 19.99 L 24.76 19.99 L 24.76 -.9 L 1 -.9 Z " fill="#ffc900"/>
</g>
<clipPath id="cp2">
<path transform="matrix(1,0,0,-1,0,24)" d="M 13.89 20.25 C 12.64193 20.25 11.63 19.23807 11.63 17.99 L 11.63 15.73 L 13.89 15.73 C 15.13807 15.73 16.15 16.74193 16.15 17.99 C 16.15 19.23807 15.13807 20.25 13.89 20.25 Z M 13.89 19.75 C 14.86193 19.75 15.65 18.96193 15.65 17.99 L 15.64416 17.84567 C 15.57073 16.94123 14.81333 16.23 13.89 16.23 L 12.13 16.231 L 12.13 17.99 C 12.13 18.96193 12.91807 19.75 13.89 19.75 Z "/>
</clipPath>
<g clip-path="url(#cp2)">
<path transform="matrix(1,0,0,-1,0,24)" d="M 6.63 25.25 L 21.15 25.25 L 21.15 10.73 L 6.63 10.73 Z "/>
</g>
<clipPath id="cp3">
<path transform="matrix(1,0,0,-1,0,24)" d="M 9.87 20.25 C 8.621929 20.25 7.61 19.23807 7.61 17.99 C 7.61 16.74193 8.621929 15.73 9.87 15.73 L 12.13 15.73 L 12.13 17.99 C 12.13 19.23807 11.11807 20.25 9.87 20.25 Z M 10.01433 19.74416 C 10.91877 19.67073 11.63 18.91333 11.63 17.99 L 11.629 16.231 L 9.87 16.23 C 8.898071 16.23 8.11 17.01807 8.11 17.99 C 8.11 18.96193 8.898071 19.75 9.87 19.75 L 10.01433 19.74416 Z "/>
</clipPath>
<g clip-path="url(#cp3)">
<path transform="matrix(1,0,0,-1,0,24)" d="M 2.61 25.25 L 17.13 25.25 L 17.13 10.73 L 2.61 10.73 Z "/>
</g>
<clipPath id="cp4">
<path transform="matrix(1,0,0,-1,0,24)" d="M 19.01 16.24 L 4.75 16.24 L 4.75 11.73 L 19.01 11.73 L 19.01 16.24 Z M 18.51 15.741 L 18.51 12.231 L 5.25 12.231 L 5.25 15.741 L 18.51 15.741 Z "/>
</clipPath>
<g clip-path="url(#cp4)">
<path transform="matrix(1,0,0,-1,0,24)" d="M -.25 21.24 L 24.01 21.24 L 24.01 6.73 L -.25 6.73 Z "/>
</g>
<clipPath id="cp5">
<path transform="matrix(1,0,0,-1,0,24)" d="M 17.61 12.22 C 17.72835 12.22 17.82749 12.13777 17.8534 12.02732 L 17.86 11.97 L 17.86 4.84 L 5.9 4.84 L 5.9 11.97 C 5.9 12.10807 6.011929 12.22 6.15 12.22 C 6.268347 12.22 6.367487 12.13777 6.393397 12.02732 L 6.4 11.97 L 6.4 5.341 L 17.36 5.341 L 17.36 11.97 C 17.36 12.08835 17.44223 12.18749 17.55268 12.2134 L 17.61 12.22 Z "/>
</clipPath>
<g clip-path="url(#cp5)">
<path transform="matrix(1,0,0,-1,0,24)" d="M .9 17.22 L 22.86 17.22 L 22.86 -.16 L .9 -.16 Z "/>
</g>
<clipPath id="cp6">
<path transform="matrix(1,0,0,-1,0,24)" d="M 11.88 16.24 C 11.99835 16.24 12.09749 16.15777 12.1234 16.04732 L 12.13 15.99 L 12.13 5.1 C 12.13 4.961929 12.01807 4.85 11.88 4.85 C 11.76165 4.85 11.66251 4.932233 11.6366 5.042677 L 11.63 5.1 L 11.63 15.99 C 11.63 16.12807 11.74193 16.24 11.88 16.24 Z "/>
</clipPath>
<g clip-path="url(#cp6)">
<path transform="matrix(1,0,0,-1,0,24)" d="M 6.63 21.24 L 17.13 21.24 L 17.13 -.15 L 6.63 -.15 Z "/>
</g>
</g>
</svg>
