<?xml version="1.0" encoding="UTF-8" standalone="no"?>
<!DOCTYPE svg PUBLIC "-//W3C//DTD SVG 1.1//EN" "http://www.w3.org/Graphics/SVG/1.1/DTD/svg11.dtd">
<svg xmlns="http://www.w3.org/2000/svg" xmlns:xlink="http://www.w3.org/1999/xlink" version="1.1" width="24pt" height="24pt" viewBox="0 0 24 24">
<g enable-background="new">
<clipPath id="cp0">
<path transform="matrix(1,0,0,-1,0,24)" d="M 17.9453 8.7196 L 17.4453 8.7196 C 17.4453 8.387441 16.90692 8.0076 16.4433 8.0076 C 16.08948 8.0076 15.64967 8.238115 15.56328 8.467663 L 15.0793 8.3796 L 15.0793 5.6046 C 15.0793 4.160845 16.25091 2.9906 17.6953 2.9906 L 17.86075 2.99574 C 19.17377 3.077578 20.2233 4.126792 20.30516 5.439226 L 20.3113 5.6046 L 20.3113 8.3796 L 19.82754 8.468225 C 19.74023 8.237935 19.30076 8.0076 18.9463 8.0076 C 18.48354 8.0076 17.9453 8.387534 17.9453 8.7196 Z " fill-rule="evenodd"/>
</clipPath>
<g clip-path="url(#cp0)">
<path transform="matrix(1,0,0,-1,0,24)" d="M 10.0793 13.7196 L 25.3113 13.7196 L 25.3113 -2.0094 L 10.0793 -2.0094 Z " fill="#ffffff"/>
</g>
<clipPath id="cp1">
<path transform="matrix(1,0,0,-1,0,24)" d="M 11.4729 18.9996 C 9.706664 18.9996 8.2749 17.56851 8.2749 15.8026 C 8.2749 14.03653 9.706829 12.6046 11.4729 12.6046 C 13.23881 12.6046 14.6699 14.03636 14.6699 15.8026 C 14.6699 17.56867 13.23897 18.9996 11.4729 18.9996 Z " fill-rule="evenodd"/>
</clipPath>
<g clip-path="url(#cp1)">
<path transform="matrix(1,0,0,-1,0,24)" d="M 3.2749 23.9996 L 19.6699 23.9996 L 19.6699 7.6046 L 3.2749 7.6046 Z " fill="#ffffff"/>
</g>
<clipPath id="cp2">
<path transform="matrix(1,0,0,-1,0,24)" d="M 14.3295 6.6049 L 14.3295 6.6049 L 14.3295 9.3799 C 14.4665 9.0159 15.0315 8.7569 15.4435 8.7569 C 15.8085 8.7569 16.2595 8.9629 16.5075 9.2639 C 15.3715 10.8339 13.5305 11.8589 11.4455 11.8589 C 7.9935 11.8589 5.1955 9.0609 5.1955 5.6089 L 14.5565 5.6089 C 14.4145 5.9129 14.3295 6.2479 14.3295 6.6049 " fill-rule="evenodd"/>
</clipPath>
<g clip-path="url(#cp2)">
<path transform="matrix(1,0,0,-1,0,24)" d="M .1955 16.8589 L 21.5075 16.8589 L 21.5075 .6089 L .1955 .6089 Z " fill="#ffffff"/>
</g>
<clipPath id="cp3">
<path transform="matrix(1,0,0,-1,0,24)" d="M 15.3295 5.6049 L 15.3295 5.6049 L 15.3295 8.3799 C 15.4665 8.0159 16.0315 7.7569 16.4435 7.7569 C 16.8085 7.7569 17.2595 7.9629 17.5075 8.2639 C 16.3715 9.8339 14.5305 10.8589 12.4455 10.8589 C 8.9935 10.8589 6.1955 8.0609 6.1955 4.6089 L 15.5565 4.6089 C 15.4145 4.9129 15.3295 5.2479 15.3295 5.6049 " fill-rule="evenodd"/>
</clipPath>
<g clip-path="url(#cp3)">
<path transform="matrix(1,0,0,-1,0,24)" d="M 1.1955 15.8589 L 22.5075 15.8589 L 22.5075 -.3911 L 1.1955 -.3911 Z " fill="#ffc708"/>
</g>
<clipPath id="cp4">
<path transform="matrix(1,0,0,-1,0,24)" d="M 17.9453 8.7196 L 17.4453 8.7196 C 17.4453 8.387441 16.90692 8.0076 16.4433 8.0076 C 16.08948 8.0076 15.64967 8.238115 15.56328 8.467663 L 15.0793 8.3796 L 15.0793 5.6046 C 15.0793 4.160845 16.25091 2.9906 17.6953 2.9906 L 17.86075 2.99574 C 19.17377 3.077578 20.2233 4.126792 20.30516 5.439226 L 20.3113 5.6046 L 20.3113 8.3796 L 19.82754 8.468225 C 19.74023 8.237935 19.30076 8.0076 18.9463 8.0076 C 18.48354 8.0076 17.9453 8.387534 17.9453 8.7196 Z M 17.695 8.094 L 17.70279 8.083763 C 17.99399 7.741648 18.48749 7.5076 18.9463 7.5076 L 19.07304 7.513406 C 19.28614 7.532599 19.50642 7.598551 19.70232 7.699066 L 19.811 7.761 L 19.8103 5.6046 C 19.8103 4.436533 18.86409 3.4906 17.6953 3.4906 L 17.54421 3.495908 C 16.44631 3.573324 15.5793 4.487878 15.5793 5.6046 L 15.579 7.761 L 15.68737 7.699255 C 15.92245 7.578531 16.19272 7.5076 16.4433 7.5076 C 16.85161 7.5076 17.28711 7.692472 17.58345 7.973831 L 17.695 8.094 Z "/>
</clipPath>
<g clip-path="url(#cp4)">
<path transform="matrix(1,0,0,-1,0,24)" d="M 10.0793 13.7196 L 25.3113 13.7196 L 25.3113 -2.0094 L 10.0793 -2.0094 Z " fill="#292525"/>
</g>
<clipPath id="cp5">
<path transform="matrix(1,0,0,-1,0,24)" d="M 15.4199 14.8026 C 15.4199 13.1746 14.1009 11.8546 12.4729 11.8546 C 10.8449 11.8546 9.5249 13.1746 9.5249 14.8026 C 9.5249 16.4306 10.8449 17.7496 12.4729 17.7496 C 14.1009 17.7496 15.4199 16.4306 15.4199 14.8026 " fill-rule="evenodd"/>
</clipPath>
<g clip-path="url(#cp5)">
<path transform="matrix(1,0,0,-1,0,24)" d="M 4.5249 22.7496 L 20.4199 22.7496 L 20.4199 6.8546 L 4.5249 6.8546 Z " fill="#ffc708"/>
</g>
<clipPath id="cp6">
<path transform="matrix(1,0,0,-1,0,24)" d="M 11.4729 18.9996 C 9.706664 18.9996 8.2749 17.56851 8.2749 15.8026 C 8.2749 14.03653 9.706829 12.6046 11.4729 12.6046 C 13.23881 12.6046 14.6699 14.03636 14.6699 15.8026 C 14.6699 17.56867 13.23897 18.9996 11.4729 18.9996 Z M 11.4729 18.4996 C 12.96283 18.4996 14.1699 17.29253 14.1699 15.8026 C 14.1699 14.31245 12.96261 13.1046 11.4729 13.1046 C 9.982971 13.1046 8.7749 14.31267 8.7749 15.8026 C 8.7749 17.29231 9.982754 18.4996 11.4729 18.4996 Z "/>
</clipPath>
<g clip-path="url(#cp6)">
<path transform="matrix(1,0,0,-1,0,24)" d="M 3.2749 23.9996 L 19.6699 23.9996 L 19.6699 7.6046 L 3.2749 7.6046 Z " fill="#292525"/>
</g>
<clipPath id="cp7">
<path transform="matrix(1,0,0,-1,0,24)" d="M 11.4725 12.105 C 13.43447 12.105 15.25186 11.22525 16.4703 9.745534 L 16.6327 9.540062 L 16.2343 9.237938 C 15.11192 10.71798 13.36551 11.605 11.4725 11.605 C 8.323522 11.605 5.743888 9.168501 5.515882 6.077788 L 5.504 5.882 L 13.9475 5.882 L 13.9475 5.382 L 4.9995 5.382 L 4.9995 5.632 C 4.9995 9.207071 7.897429 12.105 11.4725 12.105 Z "/>
</clipPath>
<g clip-path="url(#cp7)">
<path transform="matrix(1,0,0,-1,0,24)" d="M -.0005 17.105 L 21.6327 17.105 L 21.6327 .382 L -.0005 .382 Z " fill="#292525"/>
</g>
<clipPath id="cp8">
<path transform="matrix(1,0,0,-1,0,24)" d="M 17.6953 5.1639 L 17.0803 5.7779 L 17.6953 6.3929 L 18.3093 5.7779 L 17.6953 5.1639 Z " fill-rule="evenodd"/>
</clipPath>
<g clip-path="url(#cp8)">
<path transform="matrix(1,0,0,-1,0,24)" d="M 12.0803 11.3929 L 23.3093 11.3929 L 23.3093 .1639 L 12.0803 .1639 Z " fill="#ffffff"/>
</g>
<clipPath id="cp9">
<path transform="matrix(1,0,0,-1,0,24)" d="M 17.69544 6.746597 L 16.7266 5.777756 L 17.69544 4.81049 L 18.66271 5.777756 L 17.69544 6.746597 Z M 17.695 6.04 L 17.956 5.779 L 17.694 5.517 L 17.433 5.778 L 17.695 6.04 Z "/>
</clipPath>
<g clip-path="url(#cp9)">
<path transform="matrix(1,0,0,-1,0,24)" d="M 11.7266 11.7466 L 23.66271 11.7466 L 23.66271 -.1895096 L 11.7266 -.1895096 Z " fill="#292525"/>
</g>
</g>
</svg>
