<?xml version="1.0" encoding="UTF-8" standalone="no"?>
<!DOCTYPE svg PUBLIC "-//W3C//DTD SVG 1.1//EN" "http://www.w3.org/Graphics/SVG/1.1/DTD/svg11.dtd">
<svg xmlns="http://www.w3.org/2000/svg" xmlns:xlink="http://www.w3.org/1999/xlink" version="1.1" width="24pt" height="24pt" viewBox="0 0 24 24">
<g enable-background="new">
<clipPath id="cp0">
<path transform="matrix(1,0,0,-1,0,24)" d="M 18.89 17.8094 L 18.89 19.2064 C 16.654 19.2064 13.375 19.8414 11.57 21.6464 C 9.765 19.8414 6.487 19.2064 4.25 19.2064 L 4.25 11.0734 C 4.25 8.3284 8.351 3.9904 11.57 2.9394 C 14.789 3.9904 18.89 8.3284 18.89 11.0734 L 18.89 14.1204 L 18.89 17.8094 Z " fill-rule="evenodd"/>
</clipPath>
<g clip-path="url(#cp0)">
<path transform="matrix(1,0,0,-1,0,24)" d="M -.75 26.6464 L 23.89 26.6464 L 23.89 -2.0606 L -.75 -2.0606 Z " fill="#ffffff"/>
</g>
<clipPath id="cp1">
<path transform="matrix(1,0,0,-1,0,24)" d="M 19.89 16.8094 L 19.89 18.2064 C 17.654 18.2064 14.375 18.8414 12.57 20.6464 C 10.765 18.8414 7.487 18.2064 5.25 18.2064 L 5.25 10.0734 C 5.25 7.3284 9.351 2.9904 12.57 1.9394 C 15.789 2.9904 19.89 7.3284 19.89 10.0734 L 19.89 13.1204 L 19.89 16.8094 Z " fill-rule="evenodd"/>
</clipPath>
<g clip-path="url(#cp1)">
<path transform="matrix(1,0,0,-1,0,24)" d="M .25 25.6464 L 24.89 25.6464 L 24.89 -3.0606 L .25 -3.0606 Z " fill="#ffc708"/>
</g>
<clipPath id="cp2">
<path transform="matrix(1,0,0,-1,0,24)" d="M 11.74678 21.82318 L 11.57 21.99995 L 11.39322 21.82318 C 9.866294 20.29625 6.971756 19.4564 4.25 19.4564 L 4 19.4564 L 4 11.0734 C 4 8.277261 8.087722 3.813372 11.49241 2.701746 L 11.64759 2.701746 C 15.05228 3.813372 19.14 8.277261 19.14 11.0734 L 19.14 19.4564 L 18.89 19.4564 C 16.16885 19.4564 13.27357 20.29638 11.74678 21.82318 Z M 11.57 21.302 L 11.59626 21.27677 C 13.20218 19.82641 15.92377 19.02487 18.54832 18.9606 L 18.64 18.96 L 18.64 11.0734 L 18.63396 10.89666 C 18.4657 8.386255 14.81197 4.394365 11.71278 3.253627 L 11.569 3.205 L 11.42722 3.253627 C 8.254243 4.421525 4.5 8.577961 4.5 11.0734 L 4.5 18.96 L 4.25 18.9564 C 6.864377 18.9564 9.627377 19.6974 11.32802 21.09126 L 11.57 21.302 Z "/>
</clipPath>
<g clip-path="url(#cp2)">
<path transform="matrix(1,0,0,-1,0,24)" d="M -1 26.99995 L 24.14 26.99995 L 24.14 -2.298254 L -1 -2.298254 Z " fill="#292525"/>
</g>
<clipPath id="cp3">
<path transform="matrix(1,0,0,-1,0,24)" d="M 11.70928 19.82104 L 11.5702 19.91415 L 11.43112 19.82104 C 9.850088 18.76258 7.784192 18.03498 5.850576 17.82788 L 5.6272 17.80395 L 5.6272 11.0733 C 5.6272 9.221115 8.80021 5.503931 11.47009 4.337218 L 11.67031 4.337218 C 14.34019 5.503931 17.5132 9.221115 17.5132 11.0733 L 17.5132 17.80395 L 17.28982 17.82788 C 15.35621 18.03498 13.29031 18.76258 11.70928 19.82104 Z M 11.57 19.316 L 11.74607 19.20262 C 13.24143 18.27511 15.08475 17.62435 16.85785 17.37741 L 17.013 17.359 L 17.0132 11.0733 L 17.00584 10.92945 C 16.84491 9.297229 14.07393 6.056674 11.68604 4.895146 L 11.57 4.842 L 11.45436 4.895146 C 8.994107 6.091872 6.1272 9.495535 6.1272 11.0733 L 6.127 17.359 L 5.903824 17.33072 C 7.790548 17.5328 9.792164 18.20886 11.39433 19.20262 L 11.57 19.316 Z "/>
</clipPath>
<g clip-path="url(#cp3)">
<path transform="matrix(1,0,0,-1,0,24)" d="M .6272 24.91415 L 22.5132 24.91415 L 22.5132 -.6627822 L .6272 -.6627822 Z " fill="#292525"/>
</g>
<clipPath id="cp4">
<path transform="matrix(1,0,0,-1,0,24)" d="M 11.5708 16.2026 C 12.91679 16.2026 14.05966 15.52217 14.23925 14.58268 L 14.2577 14.453 L 13.7599 14.4062 C 13.69378 15.10958 12.74872 15.7026 11.5708 15.7026 C 10.34473 15.7026 9.3788 15.05947 9.3788 14.3256 C 9.3788 13.81086 9.768002 13.45003 10.47114 13.20552 C 10.67958 13.13304 10.90244 13.07573 11.14439 13.02783 L 12.09388 12.86151 C 12.35652 12.80938 12.60028 12.74661 12.83244 12.66579 C 13.7128 12.35934 14.2588 11.85222 14.2588 11.0726 C 14.2588 10.01083 13.03625 9.1966 11.5668 9.1966 C 10.22173 9.1966 9.07917 9.877368 8.898527 10.81629 L 8.879927 10.94588 L 9.377673 10.99332 C 9.44469 10.29005 10.38972 9.6966 11.5668 9.6966 C 12.79277 9.6966 13.7588 10.33998 13.7588 11.0726 C 13.7588 11.5883 13.3703 11.94914 12.66807 12.19358 C 12.46026 12.26592 12.23811 12.32313 11.99654 12.37107 L 11.18947 12.51099 C 11.13517 12.52067 11.08464 12.52995 11.04728 12.53735 C 10.78423 12.58943 10.53973 12.6523 10.30692 12.73326 C 9.425588 13.03973 8.8788 13.54666 8.8788 14.3256 C 8.8788 15.38866 10.10126 16.2026 11.5708 16.2026 Z "/>
</clipPath>
<g clip-path="url(#cp4)">
<path transform="matrix(1,0,0,-1,0,24)" d="M 3.8788 21.2026 L 19.2588 21.2026 L 19.2588 4.1966 L 3.8788 4.1966 Z " fill="#292525"/>
</g>
<clipPath id="cp5">
<path transform="matrix(1,0,0,-1,0,24)" d="M 11.3187 8.6325 L 11.8187 8.6325 L 11.8187 16.766499 L 11.3187 16.766499 Z "/>
</clipPath>
<g clip-path="url(#cp5)">
<path transform="matrix(1,0,0,-1,0,24)" d="M 6.3187 21.7665 L 16.8187 21.7665 L 16.8187 3.6325 L 6.3187 3.6325 Z " fill="#292525"/>
</g>
</g>
</svg>
