<?xml version="1.0" encoding="UTF-8" standalone="no"?>
<!DOCTYPE svg PUBLIC "-//W3C//DTD SVG 1.1//EN" "http://www.w3.org/Graphics/SVG/1.1/DTD/svg11.dtd">
<svg xmlns="http://www.w3.org/2000/svg" xmlns:xlink="http://www.w3.org/1999/xlink" version="1.1" width="24pt" height="24pt" viewBox="0 0 24 24">
<g enable-background="new">
<clipPath id="cp0">
<path transform="matrix(1,0,0,-1,0,24)" d="M 3.5002 20.4999 L 18.5002 20.4999 C 19.05248 20.4999 19.5002 20.05218 19.5002 19.4999 L 19.5002 9.4999 C 19.5002 8.947615 19.05248 8.4999 18.5002 8.4999 L 3.5002 8.4999 C 2.947915 8.4999 2.5002 8.947615 2.5002 9.4999 L 2.5002 19.4999 C 2.5002 20.05218 2.947915 20.4999 3.5002 20.4999 Z " fill-rule="evenodd"/>
</clipPath>
<g clip-path="url(#cp0)">
<path transform="matrix(1,0,0,-1,0,24)" d="M -2.4998 25.4999 L 24.5002 25.4999 L 24.5002 3.4999 L -2.4998 3.4999 Z " fill="#ffffff"/>
</g>
<clipPath id="cp1">
<path transform="matrix(1,0,0,-1,0,24)" d="M 16.3642 12.9248 L 20.2232 12.9248 L 20.2232 18.6228 C 20.2232 18.9688 19.9432 19.2498 19.5932 19.2498 L 4.3772 19.2498 C 4.0312 19.2498 3.7502 18.9688 3.7502 18.6228 L 3.7502 9.9248 L 16.3642 9.9248 L 16.3642 12.9248 Z " fill-rule="evenodd"/>
</clipPath>
<g clip-path="url(#cp1)">
<path transform="matrix(1,0,0,-1,0,24)" d="M -1.2498 24.2498 L 25.2232 24.2498 L 25.2232 4.9248 L -1.2498 4.9248 Z " fill="#ffc708"/>
</g>
<clipPath id="cp2">
<path transform="matrix(1,0,0,-1,0,24)" d="M 13.2946 6.4086 L 8.6796 6.4086 C 8.394861 6.4086 8.182685 6.177521 8.040944 5.817094 C 7.921883 5.501594 7.8566 5.101981 7.8566 4.6786 L 7.8566 4.428557 L 14.1156 4.429643 L 14.1156 4.6796 C 14.1156 5.620455 13.81151 6.4086 13.2946 6.4086 Z " fill-rule="evenodd"/>
</clipPath>
<g clip-path="url(#cp2)">
<path transform="matrix(1,0,0,-1,0,24)" d="M 2.8566 11.4086 L 19.1156 11.4086 L 19.1156 -.5714434 L 2.8566 -.5714434 Z " fill="#ffffff"/>
</g>
<clipPath id="cp3">
<path transform="matrix(1,0,0,-1,0,24)" d="M 12.55951 8.583 L 9.412492 8.583 L 8.662198 5.909 L 13.3098 5.909 L 12.55951 8.583 Z " fill-rule="evenodd"/>
</clipPath>
<g clip-path="url(#cp3)">
<path transform="matrix(1,0,0,-1,0,24)" d="M 3.662198 13.583 L 18.3098 13.583 L 18.3098 .909 L 3.662198 .909 Z " fill="#ffffff"/>
</g>
<clipPath id="cp4">
<path transform="matrix(1,0,0,-1,0,24)" d="M 18.593 20.5 C 19.04267 20.5 19.412 20.16599 19.46616 19.73314 L 19.473 19.623 L 19.473 14.292 L 18.973 14.292 L 18.973 19.623 C 18.973 19.80554 18.84379 19.95727 18.66998 19.99236 L 18.593 20 L 3.377 20 C 3.195062 20 3.042875 19.87055 3.007671 19.6989 L 3 19.623 L 3 8.962 C 3 8.778721 3.129853 8.625243 3.301256 8.589737 L 3.377 8.582 L 15.83 8.582 L 15.83 8.082 L 3.377 8.082 C 2.930088 8.082 2.560978 8.418576 2.506836 8.851815 L 2.5 8.962 L 2.5 19.623 C 2.5 20.06983 2.834803 20.43901 3.267047 20.49316 L 3.377 20.5 L 18.593 20.5 Z "/>
</clipPath>
<g clip-path="url(#cp4)">
<path transform="matrix(1,0,0,-1,0,24)" d="M -2.5 25.5 L 24.473 25.5 L 24.473 3.082 L -2.5 3.082 Z " fill="#292525"/>
</g>
<clipPath id="cp5">
<path transform="matrix(1,0,0,-1,0,24)" d="M 13.2946 6.4086 L 8.6796 6.4086 C 8.394861 6.4086 8.182685 6.177521 8.040944 5.817094 C 7.921883 5.501594 7.8566 5.101981 7.8566 4.6786 L 7.8566 4.428557 L 14.1156 4.429643 L 14.1156 4.6796 C 14.1156 5.620455 13.81151 6.4086 13.2946 6.4086 Z M 13.2946 5.9086 L 13.32178 5.899111 C 13.41733 5.836468 13.55767 5.469844 13.6018 4.983962 L 13.6052 4.9299 L 8.3652 4.9289 L 8.382266 5.101369 C 8.407425 5.302638 8.450312 5.485759 8.507506 5.63735 C 8.580824 5.823721 8.65876 5.9086 8.6796 5.9086 L 13.2946 5.9086 Z "/>
</clipPath>
<g clip-path="url(#cp5)">
<path transform="matrix(1,0,0,-1,0,24)" d="M 2.8566 11.4086 L 19.1156 11.4086 L 19.1156 -.5714434 L 2.8566 -.5714434 Z " fill="#292525"/>
</g>
<clipPath id="cp6">
<path transform="matrix(1,0,0,-1,0,24)" d="M 12.55951 8.583 L 9.412492 8.583 L 8.662198 5.909 L 13.3098 5.909 L 12.55951 8.583 Z M 12.1802 8.0839 L 12.6502 6.4099 L 9.3212 6.4099 L 9.7912 8.0839 L 12.1802 8.0839 Z "/>
</clipPath>
<g clip-path="url(#cp6)">
<path transform="matrix(1,0,0,-1,0,24)" d="M 3.662198 13.583 L 18.3098 13.583 L 18.3098 .909 L 3.662198 .909 Z " fill="#292525"/>
</g>
<clipPath id="cp7">
<path transform="matrix(1,0,0,-1,0,24)" d="M 2.75 10.2656 L 15.83 10.2656 L 15.83 10.7656 L 2.75 10.7656 Z "/>
</clipPath>
<g clip-path="url(#cp7)">
<path transform="matrix(1,0,0,-1,0,24)" d="M -2.25 15.7656 L 20.83 15.7656 L 20.83 5.2656 L -2.25 5.2656 Z " fill="#292525"/>
</g>
<clipPath id="cp8">
<path transform="matrix(1,0,0,-1,0,24)" d="M 10.163 9.1743 L 11.809 9.1743 L 11.809 9.6743 L 10.163 9.6743 Z "/>
</clipPath>
<g clip-path="url(#cp8)">
<path transform="matrix(1,0,0,-1,0,24)" d="M 5.163 14.6743 L 16.809 14.6743 L 16.809 4.1743 L 5.163 4.1743 Z " fill="#292525"/>
</g>
<clipPath id="cp9">
<path transform="matrix(1,0,0,-1,0,24)" d="M 15.829 4.0649 C 15.829 3.8079 16.037 3.5999 16.294 3.5999 L 21.513 3.5999 C 21.77 3.5999 21.978 3.8079 21.978 4.0649 L 21.978 5.8999 L 15.829 5.8999 L 15.829 4.0649 Z " fill-rule="evenodd"/>
</clipPath>
<g clip-path="url(#cp9)">
<path transform="matrix(1,0,0,-1,0,24)" d="M 10.829 10.8999 L 26.978 10.8999 L 26.978 -1.4001 L 10.829 -1.4001 Z " fill="#ffffff"/>
</g>
<clipPath id="cp10">
<path transform="matrix(1,0,0,-1,0,24)" d="M 22.228 6.1499 L 15.579 6.1499 L 15.579 4.0649 C 15.579 3.669829 15.89893 3.3499 16.294 3.3499 L 21.513 3.3499 C 21.90807 3.3499 22.228 3.669829 22.228 4.0649 L 22.228 6.1499 Z M 16.0782 5.6499 L 21.7272 5.6499 L 21.728 4.0649 C 21.728 3.945971 21.63193 3.8499 21.513 3.8499 L 16.294 3.8499 L 16.23678 3.857567 C 16.14572 3.882559 16.079 3.965793 16.079 4.0649 L 16.0782 5.6499 Z "/>
</clipPath>
<g clip-path="url(#cp10)">
<path transform="matrix(1,0,0,-1,0,24)" d="M 10.579 11.1499 L 27.228 11.1499 L 27.228 -1.6501 L 10.579 -1.6501 Z " fill="#292525"/>
</g>
<clipPath id="cp11">
<path transform="matrix(1,0,0,-1,0,24)" d="M 15.8292 5.8997 L 21.978199 5.8997 L 21.978199 12.728701 L 15.8292 12.728701 Z "/>
</clipPath>
<g clip-path="url(#cp11)">
<path transform="matrix(1,0,0,-1,0,24)" d="M 10.8292 17.7287 L 26.9782 17.7287 L 26.9782 .8997 L 10.8292 .8997 Z " fill="#ffffff"/>
</g>
<clipPath id="cp12">
<path transform="matrix(1,0,0,-1,0,24)" d="M 22.2282 12.9787 L 15.5792 12.9787 L 15.5792 5.6497 L 22.2282 5.6497 L 22.2282 12.9787 Z M 21.7282 12.4789 L 21.7282 6.1499 L 16.0792 6.1499 L 16.0792 12.4789 L 21.7282 12.4789 Z "/>
</clipPath>
<g clip-path="url(#cp12)">
<path transform="matrix(1,0,0,-1,0,24)" d="M 10.5792 17.9787 L 27.2282 17.9787 L 27.2282 .6497 L 10.5792 .6497 Z " fill="#292525"/>
</g>
<clipPath id="cp13">
<path transform="matrix(1,0,0,-1,0,24)" d="M 21.5131 14.2919 L 16.2941 14.2919 C 16.0371 14.2919 15.8291 14.0839 15.8291 13.8269 L 15.8291 12.7289 L 21.9781 12.7289 L 21.9781 13.8269 C 21.9781 14.0839 21.7701 14.2919 21.5131 14.2919 " fill-rule="evenodd"/>
</clipPath>
<g clip-path="url(#cp13)">
<path transform="matrix(1,0,0,-1,0,24)" d="M 10.8291 19.2919 L 26.9781 19.2919 L 26.9781 7.7289 L 10.8291 7.7289 Z " fill="#ffffff"/>
</g>
<clipPath id="cp14">
<path transform="matrix(1,0,0,-1,0,24)" d="M 21.5131 14.5419 L 16.2941 14.5419 C 15.89903 14.5419 15.5791 14.22197 15.5791 13.8269 L 15.5791 12.4789 L 22.2281 12.4789 L 22.2281 13.8269 C 22.2281 14.22197 21.90817 14.5419 21.5131 14.5419 Z M 21.5131 14.0419 L 21.57032 14.03423 C 21.66138 14.00924 21.7281 13.92601 21.7281 13.8269 L 21.7272 12.9789 L 16.0782 12.9789 L 16.0791 13.8269 C 16.0791 13.94583 16.17517 14.0419 16.2941 14.0419 L 21.5131 14.0419 Z "/>
</clipPath>
<g clip-path="url(#cp14)">
<path transform="matrix(1,0,0,-1,0,24)" d="M 10.5791 19.5419 L 27.2281 19.5419 L 27.2281 7.4789 L 10.5791 7.4789 Z " fill="#292525"/>
</g>
<clipPath id="cp15">
<path transform="matrix(1,0,0,-1,0,24)" d="M 18.2094 4.5102 L 19.742402 4.5102 L 19.742402 5.0102 L 18.2094 5.0102 Z "/>
</clipPath>
<g clip-path="url(#cp15)">
<path transform="matrix(1,0,0,-1,0,24)" d="M 13.2094 10.0102 L 24.7424 10.0102 L 24.7424 -.4898 L 13.2094 -.4898 Z " fill="#292525"/>
</g>
<clipPath id="cp16">
<path transform="matrix(1,0,0,-1,0,24)" d="M 20.3777 9.7892 L 17.4297 9.7892 L 17.4297 7.6612 L 20.3777 7.6612 L 20.3777 9.7892 Z M 19.9402 9.3529 L 19.9402 8.0989 L 17.8662 8.0989 L 17.8662 9.3529 L 19.9402 9.3529 Z "/>
</clipPath>
<g clip-path="url(#cp16)">
<path transform="matrix(1,0,0,-1,0,24)" d="M 12.4297 14.7892 L 25.3777 14.7892 L 25.3777 2.6612 L 12.4297 2.6612 Z " fill="#292525"/>
</g>
<clipPath id="cp17">
<path transform="matrix(1,0,0,-1,0,24)" d="M 18.9033 10.9636 C 19.43522 10.9636 19.87626 10.57071 19.9327 10.06426 L 19.9388 9.9541 L 19.5018 9.9541 C 19.5018 10.26807 19.23492 10.5266 18.9033 10.5266 C 18.60564 10.5266 18.35979 10.3171 18.3136 10.0464 L 18.3058 9.9541 L 17.8688 9.9541 C 17.8688 10.51239 18.33419 10.9636 18.9033 10.9636 Z "/>
</clipPath>
<g clip-path="url(#cp17)">
<path transform="matrix(1,0,0,-1,0,24)" d="M 12.8688 15.9636 L 24.9388 15.9636 L 24.9388 4.9541 L 12.8688 4.9541 Z " fill="#292525"/>
</g>
</g>
</svg>
