<?xml version="1.0" encoding="UTF-8" standalone="no"?>
<svg
   xmlns:dc="http://purl.org/dc/elements/1.1/"
   xmlns:cc="http://creativecommons.org/ns#"
   xmlns:rdf="http://www.w3.org/1999/02/22-rdf-syntax-ns#"
   xmlns:svg="http://www.w3.org/2000/svg"
   xmlns="http://www.w3.org/2000/svg"
   viewBox="0 0 32 32"
   height="32"
   width="32"
   xml:space="preserve"
   id="svg2"
   version="1.1"><metadata
     id="metadata8"><rdf:RDF><cc:Work
         rdf:about=""><dc:format>image/svg+xml</dc:format><dc:type
           rdf:resource="http://purl.org/dc/dcmitype/StillImage" /></cc:Work></rdf:RDF></metadata><defs
     id="defs6"><clipPath
       id="clipPath20"
       clipPathUnits="userSpaceOnUse"><path
         id="path18"
         d="m 6,4.74 h 12.02 v 9.5 H 6 Z" /></clipPath><clipPath
       id="clipPath30"
       clipPathUnits="userSpaceOnUse"><path
         id="path28"
         d="m 7.25,3.99 h 11.52 v 9 H 7.25 Z" /></clipPath><clipPath
       id="clipPath40"
       clipPathUnits="userSpaceOnUse"><path
         id="path38"
         d="M 18.02,14.24 H 6 v -9.5 h 12.02 z m -0.5,-0.5 V 5.24 H 6.5 v 8.5 z" /></clipPath><clipPath
       id="clipPath50"
       clipPathUnits="userSpaceOnUse"><path
         id="path48"
         d="m 12.0101,20.0001 c 1.10373,0 1.89541,-0.35186 2.69678,-1.15322 0.74412,-0.74413 1.10066,-1.4799 1.1478,-2.46492 l 0.0054,-0.23186 v -2.16 h -0.5 v 2.16 c 0,0.96627 -0.29614,1.63259 -1.00678,2.34322 -0.71063,0.71064 -1.37695,1.00678 -2.34322,1.00678 -1.7344,0 -3.246016,-1.35688 -3.344863,-3.16173 L 8.6601,16.1501 v -2.16 h -0.5 v 2.16 c 0,2.18207 1.787065,3.85 3.85,3.85 z" /></clipPath><clipPath
       id="clipPath60"
       clipPathUnits="userSpaceOnUse"><path
         id="path58"
         d="m 11.7602,6.7899 h 0.5 v 1.576 h -0.5 z" /></clipPath><clipPath
       id="clipPath70"
       clipPathUnits="userSpaceOnUse"><path
         style="clip-rule:evenodd"
         id="path68"
         d="m 13.5986,9.9545 c 0,-0.877 -0.711,-1.588 -1.588,-1.588 -0.878,0 -1.589,0.711 -1.589,1.588 0,0.877 0.711,1.589 1.589,1.589 0.877,0 1.588,-0.712 1.588,-1.589" /></clipPath><clipPath
       id="clipPath80"
       clipPathUnits="userSpaceOnUse"><path
         id="path78"
         d="m 12.0106,11.7935 c -1.01575,0 -1.839,-0.82361 -1.839,-1.839 0,-1.01525 0.82311,-1.838 1.839,-1.838 1.01507,0 1.838,0.822929 1.838,1.838 0,1.01521 -0.82307,1.839 -1.838,1.839 z m 0,-0.5 c 0.73869,0 1.338,-0.59983 1.338,-1.339 0,-0.738929 -0.59907,-1.338 -1.338,-1.338 -0.7398,0 -1.339,0.598941 -1.339,1.338 0,0.7393 0.59944,1.339 1.339,1.339 z" /></clipPath></defs><g
     transform="matrix(1.3333333,0,0,-1.3333333,0,32)"
     id="g10"><g
       id="g12" /><g
       id="g14"><g
         clip-path="url(#clipPath20)"
         id="g16"><path
           id="path22"
           style="fill:#ffffff;fill-opacity:1;fill-rule:nonzero;stroke:none"
           d="M 1,19.24 H 23.02 V -0.26 H 1 Z" /></g></g><g
       id="g24"><g
         clip-path="url(#clipPath30)"
         id="g26"><path
           id="path32"
           style="fill:#ffc708;fill-opacity:1;fill-rule:nonzero;stroke:none"
           d="m 2.25,17.99 h 21.52 v -19 H 2.25 Z" /></g></g><g
       id="g34"><g
         clip-path="url(#clipPath40)"
         id="g36"><path
           id="path42"
           style="fill:#292525;fill-opacity:1;fill-rule:nonzero;stroke:none"
           d="M 1,19.24 H 23.02 V -0.26 H 1 Z" /></g></g><g
       id="g44"><g
         clip-path="url(#clipPath50)"
         id="g46"><path
           id="path52"
           style="fill:#292525;fill-opacity:1;fill-rule:nonzero;stroke:none"
           d="m 3.1601,25.0001 h 17.7 v -16.01 h -17.7 z" /></g></g><g
       id="g54"><g
         clip-path="url(#clipPath60)"
         id="g56"><path
           id="path62"
           style="fill:#292525;fill-opacity:1;fill-rule:nonzero;stroke:none"
           d="m 6.7602,13.3659 h 10.5 V 1.7899 h -10.5 z" /></g></g><g
       id="g64"><g
         clip-path="url(#clipPath70)"
         id="g66"><path
           id="path72"
           style="fill:#ffffff;fill-opacity:1;fill-rule:nonzero;stroke:none"
           d="m 5.4216,16.5435 h 13.177 V 3.3665 H 5.4216 Z" /></g></g><g
       id="g74"><g
         clip-path="url(#clipPath80)"
         id="g76"><path
           id="path82"
           style="fill:#292525;fill-opacity:1;fill-rule:nonzero;stroke:none"
           d="m 5.1716,16.7935 h 13.677 V 3.1165 H 5.1716 Z" /></g></g></g></svg>