<?xml version="1.0" encoding="UTF-8" standalone="no"?>
<!DOCTYPE svg PUBLIC "-//W3C//DTD SVG 1.1//EN" "http://www.w3.org/Graphics/SVG/1.1/DTD/svg11.dtd">
<svg xmlns="http://www.w3.org/2000/svg" xmlns:xlink="http://www.w3.org/1999/xlink" version="1.1" width="24pt" height="24pt" viewBox="0 0 24 24">
<g enable-background="new">
<clipPath id="cp0">
<path transform="matrix(1,0,0,-1,0,24)" d="M 7.795957 8.59057 C 6.506096 9.76593 5.299392 11.3193 4.621548 12.79147 C 3.719987 14.74793 3.764327 16.2983 4.966216 17.6923 C 5.557604 18.37857 6.567942 18.48951 7.290439 17.97228 L 7.414807 17.87448 L 8.760799 16.71448 C 9.447084 16.12309 9.558004 15.11364 9.040877 14.39136 L 8.943089 14.26702 L 8.428 13.67 L 13.19 9.327 L 13.79235 10.08945 C 14.38379 10.77469 15.39325 10.88461 16.11464 10.36729 L 16.23881 10.26948 L 17.58462 9.109634 C 18.27072 8.519507 18.38134 7.509284 17.82196 6.748599 L 17.71628 6.617087 L 17.76407 6.660006 C 16.56408 5.265923 15.03895 4.992382 12.97187 5.593023 C 11.41966 6.043889 9.710703 7.004837 8.357687 8.106611 L 8.07339 8.344726 L 7.795957 8.59057 Z " fill-rule="evenodd"/>
</clipPath>
<g clip-path="url(#cp0)">
<path transform="matrix(1,0,0,-1,0,24)" d="M -1.001678 23.29548 L 23.17943 23.29548 L 23.17943 .292829 L -1.001678 .292829 Z " fill="#ffffff"/>
</g>
<clipPath id="cp1">
<path transform="matrix(1,0,0,-1,0,24)" d="M 7.795957 8.59057 C 6.506096 9.76593 5.299392 11.3193 4.621548 12.79147 C 3.719987 14.74793 3.764327 16.2983 4.966216 17.6923 C 5.557604 18.37857 6.567942 18.48951 7.290439 17.97228 L 7.414807 17.87448 L 8.760799 16.71448 C 9.447084 16.12309 9.558004 15.11364 9.040877 14.39136 L 8.943089 14.26702 L 8.428 13.67 L 13.19 9.327 L 13.79235 10.08945 C 14.38379 10.77469 15.39325 10.88461 16.11464 10.36729 L 16.23881 10.26948 L 17.58462 9.109634 C 18.27072 8.519507 18.38134 7.509284 17.82196 6.748599 L 17.71628 6.617087 L 17.76407 6.660006 C 16.56408 5.265923 15.03895 4.992382 12.97187 5.593023 C 11.41966 6.043889 9.710703 7.004837 8.357687 8.106611 L 8.07339 8.344726 L 7.795957 8.59057 Z M 17.38807 6.988124 C 17.80369 7.47133 17.78098 8.183096 17.35568 8.637474 L 17.25839 8.730724 L 15.91225 9.890846 C 15.39581 10.33659 14.61667 10.27927 14.17783 9.771205 L 13.4198 8.806732 L 13.25406 8.591134 L 7.732686 13.62709 L 8.564216 14.5933 C 8.980273 15.07611 8.957419 15.78703 8.531758 16.24226 L 8.434393 16.33572 L 7.088401 17.49572 C 6.571083 17.94151 5.790927 17.8834 5.344941 17.36585 C 4.28736 16.13923 4.248911 14.79482 5.075685 13.00066 C 5.769785 11.49319 7.058677 9.878369 8.399733 8.72354 C 9.740985 7.567593 11.52232 6.534735 13.11136 6.07317 C 14.92445 5.546333 16.2132 5.740433 17.29033 6.871105 L 17.43 7.027 L 17.38807 6.988124 Z "/>
</clipPath>
<g clip-path="url(#cp1)">
<path transform="matrix(1,0,0,-1,0,24)" d="M -1.001678 23.29548 L 23.17943 23.29548 L 23.17943 .292829 L -1.001678 .292829 Z " fill="#333333"/>
</g>
<clipPath id="cp2">
<path transform="matrix(1,0,0,-1,0,24)" d="M 10.5324 16.55351 C 13.15226 16.76167 15.45291 14.8657 15.77241 12.28289 L 15.79441 12.0661 L 15.29599 12.0265 C 15.10957 14.37277 13.11208 16.14054 10.78447 16.06689 L 10.572 16.05509 L 10.5324 16.55351 Z "/>
</clipPath>
<g clip-path="url(#cp2)">
<path transform="matrix(1,0,0,-1,0,24)" d="M 5.532399 21.56913 L 20.79441 21.56913 L 20.79441 7.026499 L 5.532399 7.026499 Z " fill="#333333"/>
</g>
<clipPath id="cp3">
<path transform="matrix(1,0,0,-1,0,24)" d="M 10.22289 18.97561 C 14.24055 19.29504 17.7663 16.36285 18.21153 12.38686 L 18.23492 12.14215 L 17.73648 12.10265 C 17.43971 15.84731 14.22497 18.66189 10.50089 18.4921 L 10.26251 18.47719 L 10.22289 18.97561 Z "/>
</clipPath>
<g clip-path="url(#cp3)">
<path transform="matrix(1,0,0,-1,0,24)" d="M 5.222886 23.99942 L 23.23492 23.99942 L 23.23492 7.102649 L 5.222886 7.102649 Z " fill="#333333"/>
</g>
<clipPath id="cp4">
<path transform="matrix(1,0,0,-1,0,24)" d="M 9.2366 7.5341 C 10.4526 6.4861 12.2686 5.3481 14.0416 4.8331 C 15.8346 4.3121 17.3566 4.4081 18.5746 5.8231 L 18.5776 5.8251 C 19.1126 6.4471 19.0436 7.3851 18.4216 7.9201 L 17.0756 9.0801 C 16.4546 9.6161 15.5176 9.5471 14.9816 8.9261 C 14.9816 8.9261 14.3446 8.1191 14.2216 7.9591 L 10.0496 11.7641 L 9.0806 12.6481 L 9.7536 13.4301 C 10.2896 14.0521 10.2196 14.9891 9.5976 15.5251 L 8.2516 16.6851 C 7.6296 17.2211 6.6916 17.1511 6.1556 16.5291 C 4.9356 15.1141 5.0666 13.5931 5.8486 11.8961 C 6.6226 10.2151 8.0196 8.5821 9.2366 7.5341 " fill-rule="evenodd"/>
</clipPath>
<g clip-path="url(#cp4)">
<path transform="matrix(1,0,0,-1,0,24)" d="M .2498919 22.04548 L 23.93757 22.04548 L 23.93757 -.4571126 L .2498919 -.4571126 Z " fill="#ffc708"/>
</g>
<clipPath id="cp5">
<path transform="matrix(1,0,0,-1,0,24)" d="M 7.795957 8.59057 C 6.506096 9.76593 5.299392 11.3193 4.621548 12.79147 C 3.719987 14.74793 3.764327 16.2983 4.966216 17.6923 C 5.557604 18.37857 6.567942 18.48951 7.290439 17.97228 L 7.414807 17.87448 L 8.760799 16.71448 C 9.447084 16.12309 9.558004 15.11364 9.040877 14.39136 L 8.943089 14.26702 L 8.428 13.67 L 13.19 9.327 L 13.79235 10.08945 C 14.38379 10.77469 15.39325 10.88461 16.11464 10.36729 L 16.23881 10.26948 L 17.58462 9.109634 C 18.27072 8.519507 18.38134 7.509284 17.82196 6.748599 L 17.71628 6.617087 L 17.76407 6.660006 C 16.56408 5.265923 15.03895 4.992382 12.97187 5.593023 C 11.41966 6.043889 9.710703 7.004837 8.357687 8.106611 L 8.07339 8.344726 L 7.795957 8.59057 Z M 17.38807 6.988124 C 17.80369 7.47133 17.78098 8.183096 17.35568 8.637474 L 17.25839 8.730724 L 15.91225 9.890846 C 15.39581 10.33659 14.61667 10.27927 14.17783 9.771205 L 13.4198 8.806732 L 13.25406 8.591134 L 7.732686 13.62709 L 8.564216 14.5933 C 8.980273 15.07611 8.957419 15.78703 8.531758 16.24226 L 8.434393 16.33572 L 7.088401 17.49572 C 6.571083 17.94151 5.790927 17.8834 5.344941 17.36585 C 4.28736 16.13923 4.248911 14.79482 5.075685 13.00066 C 5.769785 11.49319 7.058677 9.878369 8.399733 8.72354 C 9.740985 7.567593 11.52232 6.534735 13.11136 6.07317 C 14.92445 5.546333 16.2132 5.740433 17.29033 6.871105 L 17.43 7.027 L 17.38807 6.988124 Z "/>
</clipPath>
<g clip-path="url(#cp5)">
<path transform="matrix(1,0,0,-1,0,24)" d="M -1.001678 23.29548 L 23.17943 23.29548 L 23.17943 .292829 L -1.001678 .292829 Z " fill="#333333"/>
</g>
<clipPath id="cp6">
<path transform="matrix(1,0,0,-1,0,24)" d="M 10.5324 16.55351 C 13.15226 16.76167 15.45291 14.8657 15.77241 12.28289 L 15.79441 12.0661 L 15.29599 12.0265 C 15.10957 14.37277 13.11208 16.14054 10.78447 16.06689 L 10.572 16.05509 L 10.5324 16.55351 Z "/>
</clipPath>
<g clip-path="url(#cp6)">
<path transform="matrix(1,0,0,-1,0,24)" d="M 5.532399 21.56913 L 20.79441 21.56913 L 20.79441 7.026499 L 5.532399 7.026499 Z " fill="#333333"/>
</g>
<clipPath id="cp7">
<path transform="matrix(1,0,0,-1,0,24)" d="M 10.22289 18.97561 C 14.24055 19.29504 17.7663 16.36285 18.21153 12.38686 L 18.23492 12.14215 L 17.73648 12.10265 C 17.43971 15.84731 14.22497 18.66189 10.50089 18.4921 L 10.26251 18.47719 L 10.22289 18.97561 Z "/>
</clipPath>
<g clip-path="url(#cp7)">
<path transform="matrix(1,0,0,-1,0,24)" d="M 5.222886 23.99942 L 23.23492 23.99942 L 23.23492 7.102649 L 5.222886 7.102649 Z " fill="#333333"/>
</g>
</g>
</svg>
